G04 Layer_Color=16711935*
%FSLAX25Y25*%
%MOIN*%
G70*
G01*
G75*
%ADD21C,0.03937*%
G04:AMPARAMS|DCode=29|XSize=59.06mil|YSize=118.11mil|CornerRadius=20.67mil|HoleSize=0mil|Usage=FLASHONLY|Rotation=270.000|XOffset=0mil|YOffset=0mil|HoleType=Round|Shape=RoundedRectangle|*
%AMROUNDEDRECTD29*
21,1,0.05906,0.07677,0,0,270.0*
21,1,0.01772,0.11811,0,0,270.0*
1,1,0.04134,-0.03839,-0.00886*
1,1,0.04134,-0.03839,0.00886*
1,1,0.04134,0.03839,0.00886*
1,1,0.04134,0.03839,-0.00886*
%
%ADD29ROUNDEDRECTD29*%
%ADD30C,0.06299*%
%ADD31C,0.05118*%
%ADD44C,0.00200*%
%ADD45R,0.02500X0.02500*%
G36*
X107521Y57456D02*
X107774Y57203D01*
X107954Y56878D01*
X107990Y56733D01*
X108027Y56625D01*
X108063Y56553D01*
Y56517D01*
Y56445D01*
Y56336D01*
Y56264D01*
Y56228D01*
Y56011D01*
X108099Y55795D01*
X108135Y55650D01*
Y55578D01*
X108171Y55289D01*
Y55036D01*
Y54856D01*
Y54783D01*
Y54386D01*
X108135Y54025D01*
X108099Y53700D01*
X108063Y53447D01*
Y53231D01*
X108027Y53086D01*
X107990Y53014D01*
Y52978D01*
X107882Y52761D01*
X107774Y52617D01*
X107738Y52545D01*
X107702Y52508D01*
X107521Y52400D01*
X107304Y52328D01*
X107052Y52256D01*
X106799Y52220D01*
X106546Y52184D01*
X105427D01*
X105210Y52220D01*
X104921D01*
X104813Y52256D01*
X104777D01*
X104596Y52364D01*
X104452Y52508D01*
X104235Y52833D01*
X104199Y52978D01*
X104163Y53122D01*
X104127Y53195D01*
Y53231D01*
X104090Y53375D01*
Y53628D01*
X104054Y53917D01*
Y54242D01*
Y54531D01*
Y54783D01*
Y54964D01*
Y55036D01*
Y55614D01*
X104127Y56120D01*
X104163Y56481D01*
X104235Y56770D01*
X104307Y56986D01*
X104379Y57131D01*
X104416Y57203D01*
X104452Y57239D01*
X104632Y57383D01*
X104885Y57456D01*
X105427Y57600D01*
X105679D01*
X105896Y57636D01*
X107304D01*
X107521Y57456D01*
D02*
G37*
G36*
X107413Y51136D02*
X107918D01*
X108027Y51100D01*
X108063D01*
X108171Y50956D01*
X108207Y50884D01*
X108243Y50811D01*
Y50775D01*
X108207Y50595D01*
X108135Y50486D01*
X108063Y50414D01*
X107882D01*
X107665Y50378D01*
X104704D01*
Y48970D01*
Y48609D01*
Y48284D01*
X104741Y47778D01*
Y47381D01*
X104777Y47092D01*
X104813Y46875D01*
Y46767D01*
X104849Y46695D01*
X104993Y46586D01*
X105246Y46514D01*
X105535Y46442D01*
X105860Y46406D01*
X106149Y46370D01*
X107629D01*
X107810Y46334D01*
X108063D01*
X108171Y46262D01*
X108207Y46153D01*
X108243Y46009D01*
Y45973D01*
X108207Y45864D01*
X108063Y45792D01*
X107918Y45720D01*
X107702Y45684D01*
X107521Y45648D01*
X106510D01*
X105896Y45684D01*
X105427Y45720D01*
X105029Y45792D01*
X104777Y45864D01*
X104560Y45973D01*
X104452Y46045D01*
X104379Y46081D01*
Y46117D01*
X104307Y46225D01*
X104271Y46370D01*
X104199Y46695D01*
X104127Y47128D01*
X104090Y47561D01*
X104054Y47959D01*
Y48320D01*
Y48464D01*
Y48536D01*
Y48609D01*
Y48645D01*
X103982Y50378D01*
X103260D01*
X103043Y50450D01*
X102899Y50486D01*
X102827Y50559D01*
X102754Y50631D01*
X102718Y50703D01*
Y50739D01*
Y50775D01*
Y50811D01*
Y50884D01*
Y50920D01*
X102754Y50992D01*
X102899Y51064D01*
X103079Y51100D01*
X103260Y51136D01*
X103477Y51172D01*
X107196D01*
X107413Y51136D01*
D02*
G37*
G36*
X99924Y41067D02*
X99957D01*
X99991Y38934D01*
Y36785D01*
X97592Y36602D01*
X97392Y36818D01*
X97192Y37002D01*
X97025Y37185D01*
X96859Y37335D01*
X96725Y37451D01*
X96625Y37535D01*
X96559Y37601D01*
X96542Y37618D01*
X96226Y37885D01*
X95926Y38118D01*
X95642Y38334D01*
X95359Y38518D01*
X95076Y38684D01*
X94809Y38818D01*
X94560Y38934D01*
X94310Y39051D01*
X94076Y39134D01*
X93843Y39201D01*
X93410Y39284D01*
X93027Y39317D01*
X92677Y39301D01*
X92360Y39267D01*
X92077Y39184D01*
X91844Y39101D01*
X91661Y39018D01*
X91511Y38934D01*
X91394Y38851D01*
X91328Y38801D01*
X91311Y38784D01*
X91078Y38534D01*
X90878Y38268D01*
X90711Y37985D01*
X90578Y37685D01*
X90461Y37385D01*
X90361Y37068D01*
X90294Y36768D01*
X90228Y36468D01*
X90195Y36185D01*
X90161Y35935D01*
X90145Y35702D01*
Y35486D01*
Y35319D01*
Y35186D01*
Y35119D01*
Y35086D01*
X90195Y34636D01*
X90278Y34219D01*
X90361Y33836D01*
X90495Y33486D01*
X90628Y33170D01*
X90761Y32887D01*
X90911Y32637D01*
X91061Y32403D01*
X91211Y32220D01*
X91361Y32054D01*
X91494Y31920D01*
X91611Y31804D01*
X91694Y31720D01*
X91777Y31670D01*
X91827Y31637D01*
X91844Y31620D01*
X92061Y31504D01*
X92294Y31420D01*
X92510Y31354D01*
X92760Y31321D01*
X92993Y31304D01*
X93227D01*
X93477Y31337D01*
X93726Y31387D01*
X94210Y31521D01*
X94693Y31720D01*
X95159Y31954D01*
X95609Y32204D01*
X96042Y32487D01*
X96425Y32770D01*
X96775Y33037D01*
X97075Y33303D01*
X97325Y33520D01*
X97425Y33603D01*
X97508Y33686D01*
X97575Y33753D01*
X97625Y33803D01*
X97642Y33820D01*
X97658Y33836D01*
X99957Y33920D01*
Y31770D01*
Y29621D01*
X97158D01*
X97308Y29705D01*
X97558Y29838D01*
X97725Y29938D01*
X97875Y30004D01*
X97958Y30038D01*
X97975Y30054D01*
X97992D01*
X98175Y30154D01*
X98308Y30238D01*
X98408Y30288D01*
X98475Y30338D01*
X98508Y30354D01*
X98525Y30371D01*
X98541Y30388D01*
Y31804D01*
Y33187D01*
X98391Y33220D01*
X98308Y33203D01*
X98258Y33187D01*
X98225Y33170D01*
X98208Y33153D01*
X98175Y33120D01*
X98141Y33053D01*
X98058Y32903D01*
X98025Y32837D01*
X97992Y32770D01*
X97958Y32737D01*
Y32720D01*
X97791Y32387D01*
X97608Y32070D01*
X97442Y31804D01*
X97292Y31587D01*
X97142Y31404D01*
X97042Y31271D01*
X96975Y31187D01*
X96942Y31154D01*
X96709Y30921D01*
X96475Y30721D01*
X96242Y30538D01*
X95992Y30388D01*
X95759Y30238D01*
X95509Y30121D01*
X95293Y30021D01*
X95059Y29921D01*
X94859Y29855D01*
X94660Y29788D01*
X94493Y29754D01*
X94343Y29705D01*
X94226Y29688D01*
X94143Y29671D01*
X94076Y29655D01*
X94060D01*
X93777Y29638D01*
X93493D01*
X93210Y29655D01*
X92960Y29688D01*
X92460Y29788D01*
X92244Y29855D01*
X92027Y29921D01*
X91844Y29988D01*
X91677Y30071D01*
X91527Y30138D01*
X91394Y30188D01*
X91294Y30238D01*
X91228Y30288D01*
X91177Y30304D01*
X91161Y30321D01*
X90794Y30571D01*
X90478Y30837D01*
X90178Y31137D01*
X89928Y31437D01*
X89695Y31754D01*
X89478Y32054D01*
X89312Y32370D01*
X89145Y32653D01*
X89028Y32937D01*
X88912Y33203D01*
X88828Y33436D01*
X88762Y33653D01*
X88712Y33820D01*
X88678Y33936D01*
X88645Y34020D01*
Y34053D01*
X88595Y34369D01*
X88562Y34686D01*
X88545Y35302D01*
X88579Y35869D01*
X88595Y36119D01*
X88629Y36369D01*
X88678Y36585D01*
X88712Y36802D01*
X88745Y36968D01*
X88779Y37118D01*
X88812Y37235D01*
X88845Y37335D01*
X88862Y37385D01*
Y37402D01*
X88995Y37735D01*
X89128Y38051D01*
X89295Y38334D01*
X89461Y38618D01*
X89628Y38868D01*
X89811Y39101D01*
X89995Y39317D01*
X90161Y39517D01*
X90328Y39684D01*
X90495Y39834D01*
X90644Y39967D01*
X90761Y40067D01*
X90861Y40150D01*
X90944Y40217D01*
X90994Y40250D01*
X91011Y40267D01*
X91161Y40367D01*
X91344Y40467D01*
X91527Y40550D01*
X91711Y40633D01*
X91877Y40717D01*
X92010Y40767D01*
X92111Y40800D01*
X92127Y40817D01*
X92144D01*
X92427Y40900D01*
X92677Y40967D01*
X92910Y41000D01*
X93127Y41033D01*
X93293Y41050D01*
X93410Y41067D01*
X93527D01*
X93843Y41050D01*
X94143Y41017D01*
X94426Y40967D01*
X94676Y40900D01*
X94893Y40850D01*
X95043Y40800D01*
X95109Y40784D01*
X95159Y40767D01*
X95176Y40750D01*
X95193D01*
X95559Y40584D01*
X95892Y40384D01*
X96209Y40167D01*
X96509Y39934D01*
X96759Y39701D01*
X97009Y39451D01*
X97208Y39184D01*
X97408Y38934D01*
X97575Y38701D01*
X97708Y38484D01*
X97825Y38268D01*
X97925Y38085D01*
X97992Y37951D01*
X98041Y37835D01*
X98075Y37751D01*
X98091Y37735D01*
X98125Y37668D01*
X98141Y37601D01*
X98158Y37551D01*
X98175Y37518D01*
X98191Y37501D01*
X98208D01*
X98275Y37485D01*
X98541D01*
Y38901D01*
Y39151D01*
Y39384D01*
Y39567D01*
Y39734D01*
Y39884D01*
Y40000D01*
Y40084D01*
Y40167D01*
Y40234D01*
Y40267D01*
Y40334D01*
Y40350D01*
X97842Y40667D01*
X97575Y40800D01*
X97458Y40867D01*
X97358Y40917D01*
X97275Y40967D01*
X97208Y41000D01*
X97175Y41017D01*
X97158Y41033D01*
X97175D01*
X97225Y41050D01*
X97375D01*
X97592Y41067D01*
X97842D01*
X98108Y41083D01*
X99874D01*
X99924Y41067D01*
D02*
G37*
G36*
X107629Y44673D02*
X107954D01*
X108027Y44636D01*
X108063D01*
X108171Y44492D01*
X108207Y44420D01*
X108243Y44348D01*
Y44311D01*
X108207Y44131D01*
X108135Y44023D01*
X108099Y43950D01*
X107918D01*
X107738Y43914D01*
X106582D01*
X106040Y43878D01*
X105607Y43842D01*
X105282Y43770D01*
X105066Y43698D01*
X104921Y43625D01*
X104813Y43589D01*
X104777Y43517D01*
X104741Y43445D01*
Y43336D01*
X104704Y43012D01*
Y42903D01*
Y42759D01*
Y42687D01*
Y42650D01*
Y42362D01*
X104741Y42109D01*
X104777Y41892D01*
X104849Y41748D01*
X104885Y41639D01*
X104957Y41567D01*
X104993Y41495D01*
X105174Y41242D01*
X107557D01*
X107738Y41206D01*
X108027D01*
X108135Y41134D01*
X108207Y41026D01*
X108243Y40881D01*
Y40845D01*
X108207Y40664D01*
X108135Y40556D01*
X108063Y40484D01*
X107882D01*
X107702Y40448D01*
X105174D01*
X104993Y40303D01*
X104885Y40159D01*
X104813Y39978D01*
X104741Y39545D01*
X104704Y39364D01*
Y39184D01*
Y39076D01*
Y39039D01*
Y38823D01*
Y38642D01*
X104741Y38353D01*
X104777Y38209D01*
Y38173D01*
X104885Y37992D01*
X104993Y37884D01*
X105066Y37848D01*
X107557D01*
X107738Y37812D01*
X108027D01*
X108135Y37740D01*
X108207Y37631D01*
X108243Y37487D01*
Y37451D01*
Y37306D01*
X108207Y37234D01*
X108171Y37162D01*
X108063Y37126D01*
X107882Y37089D01*
X107629D01*
X107340Y37053D01*
X105968D01*
X105499Y37126D01*
X105102Y37162D01*
X104849Y37234D01*
X104632Y37306D01*
X104524Y37378D01*
X104452Y37415D01*
Y37451D01*
X104307Y37667D01*
X104235Y37884D01*
X104090Y38426D01*
Y38642D01*
X104054Y38859D01*
Y39003D01*
Y39039D01*
Y39401D01*
X104127Y39726D01*
X104163Y40014D01*
X104235Y40231D01*
X104307Y40412D01*
X104379Y40520D01*
X104416Y40592D01*
X104452Y40628D01*
X104596Y40845D01*
X104524Y40917D01*
X104452Y41026D01*
X104379Y41134D01*
X104343Y41278D01*
X104307Y41314D01*
X104235Y41531D01*
X104163Y41784D01*
X104090Y42325D01*
X104054Y42542D01*
Y42723D01*
Y42867D01*
Y42903D01*
Y43264D01*
X104127Y43553D01*
X104163Y43806D01*
X104235Y43986D01*
X104307Y44131D01*
X104379Y44239D01*
X104416Y44275D01*
X104452Y44311D01*
X104632Y44456D01*
X104921Y44528D01*
X105246Y44600D01*
X105607Y44673D01*
X105896D01*
X106185Y44709D01*
X107340D01*
X107629Y44673D01*
D02*
G37*
G36*
X104416Y36512D02*
X104452D01*
X104524Y36439D01*
X104560Y36331D01*
X104596Y36223D01*
Y36187D01*
X104704Y35898D01*
X106907D01*
X107340Y35862D01*
X107665D01*
X107882Y35826D01*
X108027D01*
X108135Y35790D01*
X108171D01*
X108243Y35609D01*
X108207Y35429D01*
Y35284D01*
X108171Y35248D01*
X108027Y35212D01*
X107810Y35176D01*
X107521Y35140D01*
X107196Y35103D01*
X104704D01*
Y34309D01*
Y34020D01*
X104668Y33803D01*
Y33623D01*
X104632Y33515D01*
Y33442D01*
X104596Y33406D01*
Y33370D01*
X104054D01*
Y34309D01*
Y35103D01*
X103188D01*
X103007Y35176D01*
X102899Y35212D01*
X102790Y35284D01*
X102718Y35429D01*
Y35465D01*
Y35501D01*
X102754Y35645D01*
X102827Y35717D01*
X103079Y35862D01*
X103332Y35898D01*
X103440D01*
X103982Y35970D01*
X104054Y36187D01*
X104090Y36295D01*
X104127Y36403D01*
X104199Y36476D01*
X104235Y36512D01*
X104307Y36548D01*
X104379D01*
X104416Y36512D01*
D02*
G37*
G36*
X107377Y32901D02*
X107521Y32720D01*
X107665Y32540D01*
X107810Y32395D01*
X107954Y32106D01*
X108027Y31926D01*
X108063Y31854D01*
X108099Y31745D01*
X108135Y31601D01*
X108171Y31240D01*
Y31059D01*
Y30915D01*
Y30806D01*
Y30770D01*
Y30048D01*
X107990Y29976D01*
X107882Y29940D01*
X107774D01*
X107738Y29976D01*
X107702D01*
X107521Y30048D01*
Y30770D01*
Y31131D01*
X107485Y31420D01*
X107413Y31637D01*
X107340Y31817D01*
X107304Y31962D01*
X107232Y32034D01*
X107196Y32106D01*
X107124Y32142D01*
X106979Y32179D01*
X106835D01*
X106438Y32251D01*
Y29904D01*
Y27520D01*
X106365Y27484D01*
X106257D01*
X105968Y27448D01*
X105102D01*
X104957Y27484D01*
X104777D01*
X104741Y27520D01*
X104704D01*
X104488Y27665D01*
X104307Y27845D01*
X104163Y28026D01*
X104127Y28062D01*
Y28098D01*
Y28134D01*
X104090Y28207D01*
Y28459D01*
X104054Y28784D01*
Y29145D01*
Y29506D01*
Y29795D01*
Y30048D01*
Y30084D01*
Y30120D01*
Y30445D01*
Y30734D01*
Y31204D01*
X104090Y31565D01*
Y31817D01*
Y31962D01*
X104127Y32070D01*
Y32106D01*
X104235Y32323D01*
X104343Y32504D01*
X104596Y32720D01*
X104777Y32865D01*
X104813Y32901D01*
X105318D01*
X105643Y32937D01*
X105932Y32973D01*
X106185D01*
X107377Y32901D01*
D02*
G37*
G36*
X106763Y26726D02*
X106979Y26690D01*
X107160Y26654D01*
X107304D01*
X107377Y26618D01*
X107449Y26581D01*
X107629Y26437D01*
X107774Y26293D01*
X107954Y26004D01*
X108027Y25787D01*
X108063Y25751D01*
Y25715D01*
X108099Y25534D01*
X108135Y25245D01*
Y24920D01*
X108171Y24559D01*
Y24234D01*
Y23945D01*
Y23729D01*
Y23693D01*
Y23657D01*
Y23332D01*
Y23079D01*
Y22646D01*
X108135Y22321D01*
Y22104D01*
Y21959D01*
X108099Y21887D01*
Y21851D01*
X107918Y21779D01*
X107846D01*
X107665Y21815D01*
X107593Y21851D01*
Y22104D01*
Y22284D01*
X107557Y22501D01*
Y22682D01*
Y22718D01*
Y22754D01*
X107521Y23079D01*
Y23368D01*
Y23584D01*
Y23620D01*
Y23657D01*
Y24234D01*
X107485Y24668D01*
Y25029D01*
X107449Y25282D01*
Y25462D01*
X107413Y25570D01*
Y25607D01*
Y25643D01*
X107340Y25751D01*
X107232Y25823D01*
X106907Y25932D01*
X106763D01*
X106618Y25968D01*
X104993D01*
X104921Y25787D01*
X104885Y25715D01*
X104849Y25643D01*
X104777Y25354D01*
X104741Y24957D01*
Y24559D01*
X104704Y24162D01*
Y23837D01*
Y23693D01*
Y23584D01*
Y23548D01*
Y23512D01*
Y23187D01*
Y22898D01*
X104668Y22682D01*
Y22465D01*
X104596Y22140D01*
X104524Y21923D01*
X104488Y21815D01*
X104416Y21743D01*
X104379Y21707D01*
X104307Y21743D01*
X104271Y21779D01*
X104235Y21887D01*
X104199Y22032D01*
X104127Y22357D01*
X104090Y22718D01*
X104054Y23115D01*
Y23440D01*
Y23584D01*
Y23693D01*
Y23729D01*
Y23765D01*
Y24090D01*
Y24415D01*
Y24884D01*
X104090Y25282D01*
Y25570D01*
Y25751D01*
X104127Y25895D01*
Y25932D01*
Y25968D01*
X104235Y26184D01*
X104379Y26329D01*
X104488Y26437D01*
X104560Y26545D01*
X104704Y26618D01*
X104777Y26654D01*
X104921Y26762D01*
X106474D01*
X106763Y26726D01*
D02*
G37*
G36*
X107413Y20732D02*
X107918D01*
X108027Y20696D01*
X108063D01*
X108171Y20551D01*
X108207Y20479D01*
X108243Y20407D01*
Y20371D01*
X108207Y20190D01*
X108135Y20082D01*
X108063Y20009D01*
X107882D01*
X107665Y19973D01*
X104704D01*
Y18565D01*
Y18204D01*
Y17879D01*
X104741Y17373D01*
Y16976D01*
X104777Y16651D01*
X104813Y16471D01*
Y16326D01*
X104849Y16254D01*
X104957Y16182D01*
X105174Y16110D01*
X105499Y16073D01*
X105788D01*
X106113Y16037D01*
X107629D01*
X107810Y16001D01*
X108063D01*
X108171Y15929D01*
X108207Y15821D01*
X108243Y15676D01*
Y15640D01*
X108207Y15460D01*
X108135Y15351D01*
X108063Y15279D01*
X107882D01*
X107665Y15243D01*
X106510D01*
X105896Y15279D01*
X105427Y15315D01*
X105029Y15387D01*
X104777Y15460D01*
X104560Y15568D01*
X104452Y15640D01*
X104379Y15676D01*
Y15712D01*
X104307Y15821D01*
X104271Y15965D01*
X104199Y16290D01*
X104127Y16724D01*
X104090Y17157D01*
X104054Y17554D01*
Y17915D01*
Y18059D01*
Y18132D01*
Y18204D01*
Y18240D01*
X103982Y19973D01*
X103260D01*
X103043Y20046D01*
X102899Y20082D01*
X102827Y20154D01*
X102754Y20226D01*
X102718Y20298D01*
Y20335D01*
Y20371D01*
Y20407D01*
Y20479D01*
Y20515D01*
X102754Y20587D01*
X102899Y20660D01*
X103079Y20696D01*
X103260Y20732D01*
X103477Y20768D01*
X107196D01*
X107413Y20732D01*
D02*
G37*
G36*
X107846Y14340D02*
X107954Y14268D01*
X107990Y14232D01*
X108099Y14087D01*
X108135Y13979D01*
X108171Y13871D01*
Y13835D01*
X108135Y13690D01*
X108099Y13546D01*
X107954Y13438D01*
X107846Y13365D01*
X107774D01*
X107629Y13401D01*
X107557Y13438D01*
X107413Y13582D01*
X107377Y13762D01*
Y13799D01*
Y13835D01*
X107413Y14087D01*
X107485Y14232D01*
X107557Y14304D01*
X107593Y14340D01*
X107738Y14376D01*
X107846Y14340D01*
D02*
G37*
G36*
X107629Y12282D02*
X108027D01*
X108135Y12246D01*
X108171D01*
X108243Y12101D01*
X108207Y11921D01*
Y11776D01*
X108171Y11704D01*
X108135D01*
X108063Y11668D01*
X107810D01*
X107521Y11632D01*
X104596D01*
X104379Y11704D01*
X104343Y11776D01*
X104307Y11885D01*
X104271Y11957D01*
Y11993D01*
Y12101D01*
Y12174D01*
X104307Y12246D01*
X104379Y12318D01*
X107268D01*
X107629Y12282D01*
D02*
G37*
G36*
X103693Y12462D02*
X103729Y12426D01*
X103765D01*
X103802Y12318D01*
X103838Y12174D01*
Y12065D01*
Y12029D01*
X103802Y11885D01*
X103765Y11740D01*
X103621Y11632D01*
X103513Y11560D01*
X103440D01*
X103296Y11596D01*
X103224Y11632D01*
X103079Y11776D01*
X103043Y11957D01*
Y11993D01*
Y12029D01*
Y12174D01*
X103115Y12282D01*
X103224Y12426D01*
X103368Y12499D01*
X103585D01*
X103693Y12462D01*
D02*
G37*
G36*
X107521Y10440D02*
X107774Y10152D01*
X107954Y9863D01*
X107990Y9718D01*
X108027Y9610D01*
X108063Y9538D01*
Y9501D01*
Y9429D01*
Y9321D01*
Y9249D01*
Y9213D01*
Y8996D01*
X108099Y8779D01*
X108135Y8635D01*
Y8563D01*
X108171Y8274D01*
Y8021D01*
Y7840D01*
Y7768D01*
Y7335D01*
X108135Y6974D01*
X108099Y6685D01*
X108063Y6432D01*
Y6216D01*
X108027Y6071D01*
X107990Y5999D01*
Y5963D01*
X107882Y5746D01*
X107774Y5602D01*
X107738Y5529D01*
X107702Y5493D01*
X107521Y5385D01*
X107304Y5313D01*
X107052Y5240D01*
X106799Y5204D01*
X106546Y5168D01*
X105788D01*
X105535Y5204D01*
X105318D01*
X105102Y5240D01*
X104957Y5277D01*
X104849D01*
X104813Y5313D01*
X104777D01*
X104596Y5421D01*
X104452Y5565D01*
X104235Y5891D01*
X104199Y6035D01*
X104163Y6143D01*
X104127Y6216D01*
Y6252D01*
X104090Y6432D01*
Y6685D01*
X104054Y6974D01*
Y7299D01*
Y7588D01*
Y7840D01*
Y8021D01*
Y8093D01*
Y8671D01*
X104127Y9177D01*
X104163Y9538D01*
X104235Y9826D01*
X104307Y10043D01*
X104379Y10188D01*
X104416Y10260D01*
X104452Y10296D01*
X104632Y10404D01*
X104849Y10476D01*
X105102Y10513D01*
X105390Y10549D01*
X105679Y10585D01*
X107304D01*
X107521Y10440D01*
D02*
G37*
%LPC*%
G36*
X106402Y56842D02*
X105679D01*
X105427Y56806D01*
X105210Y56770D01*
X105066Y56733D01*
X104957D01*
X104885Y56697D01*
X104849Y56661D01*
X104813Y56517D01*
X104777Y56336D01*
X104741Y56083D01*
X104704Y55795D01*
Y55542D01*
Y55325D01*
Y55181D01*
Y55108D01*
Y54531D01*
X104741Y54061D01*
X104777Y53700D01*
X104813Y53447D01*
X104849Y53303D01*
X104885Y53195D01*
X104921Y53122D01*
X105102Y52978D01*
X106474D01*
X106763Y53014D01*
X106979Y53086D01*
X107160Y53122D01*
X107268Y53195D01*
X107340Y53267D01*
X107377Y53303D01*
X107413Y53447D01*
X107449Y53664D01*
X107485Y54170D01*
X107521Y54386D01*
Y54603D01*
Y54747D01*
Y54783D01*
Y55253D01*
X107485Y55650D01*
X107449Y55975D01*
X107413Y56228D01*
X107377Y56372D01*
X107340Y56517D01*
X107304Y56553D01*
Y56589D01*
X107196Y56661D01*
X107015Y56733D01*
X106835Y56770D01*
X106618Y56806D01*
X106402Y56842D01*
D02*
G37*
G36*
X105788Y32179D02*
X105463D01*
X105282Y32142D01*
X105138Y32106D01*
X104921Y31962D01*
X104813Y31854D01*
X104777Y31781D01*
X104741Y31637D01*
Y31420D01*
X104704Y31168D01*
Y30879D01*
Y30590D01*
Y30337D01*
Y30193D01*
Y30120D01*
Y29615D01*
Y29254D01*
X104741Y28965D01*
Y28748D01*
Y28604D01*
X104777Y28532D01*
Y28495D01*
X104957Y28315D01*
X105210Y28207D01*
X105390Y28170D01*
X105788D01*
Y30229D01*
Y32179D01*
D02*
G37*
G36*
X106185Y9899D02*
X105679D01*
X105427Y9863D01*
X105210Y9826D01*
X105066Y9790D01*
X104957Y9754D01*
X104885Y9718D01*
X104849Y9682D01*
X104813Y9538D01*
X104777Y9321D01*
X104741Y9068D01*
X104704Y8779D01*
Y8527D01*
Y8310D01*
Y8165D01*
Y8093D01*
Y7515D01*
X104741Y7046D01*
X104777Y6685D01*
X104813Y6432D01*
X104849Y6288D01*
X104885Y6179D01*
X104921Y6107D01*
X105102Y5963D01*
X106474D01*
X106727Y6035D01*
X106943Y6071D01*
X107124Y6143D01*
X107232Y6216D01*
X107304Y6288D01*
X107377Y6324D01*
Y6360D01*
X107413Y6504D01*
X107449Y6685D01*
X107485Y7154D01*
X107521Y7407D01*
Y7588D01*
Y7732D01*
Y7768D01*
Y8274D01*
X107485Y8671D01*
X107449Y8996D01*
X107413Y9213D01*
X107377Y9393D01*
X107340Y9501D01*
X107304Y9574D01*
X107160Y9682D01*
X107015Y9754D01*
X106582Y9863D01*
X106365D01*
X106185Y9899D01*
D02*
G37*
%LPD*%
D21*
X74370Y8000D02*
D03*
X75900Y54600D02*
D03*
X65700Y55000D02*
D03*
X50685D02*
D03*
X40843D02*
D03*
X31000D02*
D03*
X35000Y8000D02*
D03*
X44842D02*
D03*
X54685D02*
D03*
X64528D02*
D03*
D29*
X10957Y54532D02*
D03*
Y8468D02*
D03*
D30*
X19224Y17720D02*
D03*
Y27563D02*
D03*
Y35437D02*
D03*
Y45279D02*
D03*
D31*
X10957Y40555D02*
D03*
Y22445D02*
D03*
D44*
X95400Y36200D02*
X95800D01*
X95400Y35500D02*
X95800D01*
X95300Y34700D02*
X95800D01*
X93400Y34000D02*
Y34300D01*
X94200Y34000D02*
Y34300D01*
X95000Y34000D02*
Y34200D01*
X93400Y36600D02*
Y36900D01*
X94200Y36600D02*
Y36900D01*
X95000Y36600D02*
Y36900D01*
X92500Y34700D02*
X92800D01*
X92500Y35500D02*
X92800D01*
X92500Y36200D02*
X92800D01*
D45*
X94050Y35450D02*
D03*
M02*
