G04 Layer_Color=32768*
%FSLAX25Y25*%
%MOIN*%
G70*
G01*
G75*
%ADD37C,0.00787*%
%ADD46C,0.00394*%
%ADD47C,0.00197*%
D37*
X39000Y10500D02*
X41000D01*
X40000Y9500D02*
Y11500D01*
D46*
X78716Y16783D02*
Y52217D01*
X43284Y16783D02*
Y52217D01*
Y16783D02*
X78716D01*
X43284Y52217D02*
X78716D01*
X59031Y34500D02*
X62968D01*
X61000Y32531D02*
Y36468D01*
X24459Y26026D02*
X38341D01*
X24459Y41774D02*
X38341D01*
X24459Y26026D02*
Y41774D01*
X38341Y26026D02*
Y41774D01*
X31400Y31931D02*
Y35868D01*
X29432Y33900D02*
X33369D01*
X88532Y21630D02*
Y25370D01*
X86661Y23500D02*
X90402D01*
X77846Y58202D02*
X83554D01*
X77846Y45998D02*
X83554D01*
Y58202D01*
X77846Y45998D02*
Y58202D01*
X80700Y50230D02*
Y53970D01*
X78830Y52100D02*
X82570D01*
X38200Y49230D02*
Y52970D01*
X36330Y51100D02*
X40070D01*
X105032Y19000D02*
X108968D01*
X107000Y17031D02*
Y20968D01*
X103430Y8000D02*
X107170D01*
X105300Y6130D02*
Y9870D01*
X51600Y8930D02*
Y12670D01*
X49730Y10800D02*
X53470D01*
X28430Y21200D02*
X32170D01*
X30300Y19330D02*
Y23070D01*
X28000Y8630D02*
Y12370D01*
X26130Y10500D02*
X29870D01*
X67630Y54300D02*
X71370D01*
X69500Y52430D02*
Y56170D01*
X81000Y35530D02*
Y39270D01*
X79130Y37400D02*
X82870D01*
X86500Y35530D02*
Y39270D01*
X84630Y37400D02*
X88370D01*
X48230Y53900D02*
X51970D01*
X50100Y52030D02*
Y55770D01*
X39700Y21130D02*
Y24870D01*
X37830Y23000D02*
X41570D01*
X71330Y14200D02*
X75070D01*
X73200Y12330D02*
Y16070D01*
X62700Y11830D02*
Y15570D01*
X60830Y13700D02*
X64570D01*
X93900Y50130D02*
Y53870D01*
X92030Y52000D02*
X95770D01*
X93900Y44730D02*
Y48470D01*
X92030Y46600D02*
X95770D01*
X88500Y16130D02*
Y19870D01*
X86630Y18000D02*
X90370D01*
D47*
X83217Y20547D02*
X93846D01*
X83217Y26453D02*
X93846D01*
Y20547D02*
Y26453D01*
X83217Y20547D02*
Y26453D01*
X35247Y45785D02*
X41153D01*
X35247Y56415D02*
X41153D01*
X35247Y45785D02*
Y56415D01*
X41153Y45785D02*
Y56415D01*
X100110Y12110D02*
Y25890D01*
X113890Y12110D02*
Y25890D01*
X100110D02*
X113890D01*
X100110Y12110D02*
X113890D01*
X110615Y5047D02*
Y10953D01*
X99985Y5047D02*
Y10953D01*
Y5047D02*
X110615D01*
X99985Y10953D02*
X110615D01*
X48647Y5485D02*
X54553D01*
X48647Y16115D02*
X54553D01*
X48647Y5485D02*
Y16115D01*
X54553Y5485D02*
Y16115D01*
X24985Y18247D02*
Y24153D01*
X35615Y18247D02*
Y24153D01*
X24985D02*
X35615D01*
X24985Y18247D02*
X35615D01*
X25047Y5185D02*
X30953D01*
X25047Y15815D02*
X30953D01*
X25047Y5185D02*
Y15815D01*
X30953Y5185D02*
Y15815D01*
X64185Y51347D02*
Y57253D01*
X74815Y51347D02*
Y57253D01*
X64185D02*
X74815D01*
X64185Y51347D02*
X74815D01*
X78047Y32085D02*
X83953D01*
X78047Y42715D02*
X83953D01*
X78047Y32085D02*
Y42715D01*
X83953Y32085D02*
Y42715D01*
X83547Y32085D02*
X89453D01*
X83547Y42715D02*
X89453D01*
X83547Y32085D02*
Y42715D01*
X89453Y32085D02*
Y42715D01*
X55415Y50947D02*
Y56853D01*
X44785Y50947D02*
Y56853D01*
Y50947D02*
X55415D01*
X44785Y56853D02*
X55415D01*
X36747Y28315D02*
X42653D01*
X36747Y17685D02*
X42653D01*
Y28315D01*
X36747Y17685D02*
Y28315D01*
X67885Y11247D02*
Y17153D01*
X78515Y11247D02*
Y17153D01*
X67885D02*
X78515D01*
X67885Y11247D02*
X78515D01*
X57385Y10747D02*
X68015D01*
X57385Y16653D02*
X68015D01*
Y10747D02*
Y16653D01*
X57385Y10747D02*
Y16653D01*
X88585Y49047D02*
X99215D01*
X88585Y54953D02*
X99215D01*
Y49047D02*
Y54953D01*
X88585Y49047D02*
Y54953D01*
Y43647D02*
X99215D01*
X88585Y49553D02*
X99215D01*
Y43647D02*
Y49553D01*
X88585Y43647D02*
Y49553D01*
X83185Y15047D02*
X93815D01*
X83185Y20953D02*
X93815D01*
Y15047D02*
Y20953D01*
X83185Y15047D02*
Y20953D01*
M02*
