G04 Layer_Color=16711935*
%FSLAX25Y25*%
%MOIN*%
G70*
G01*
G75*
%ADD23C,0.00600*%
%ADD24C,0.01000*%
%ADD46C,0.00394*%
D23*
X139099Y16404D02*
Y18404D01*
Y17404D01*
X133101D01*
X134100Y16404D01*
X139099Y24402D02*
X133101D01*
X136100Y21403D01*
Y25401D01*
X140098Y28400D02*
X139099Y29400D01*
X138099D01*
Y28400D01*
X139099D01*
Y29400D01*
X140098Y28400D01*
X141098Y27401D01*
X139099Y36398D02*
X133101D01*
X136100Y33399D01*
Y37398D01*
X134100Y39397D02*
X133101Y40397D01*
Y42396D01*
X134100Y43396D01*
X135100D01*
X136100Y42396D01*
Y41396D01*
Y42396D01*
X137099Y43396D01*
X138099D01*
X139099Y42396D01*
Y40397D01*
X138099Y39397D01*
X43455Y-15100D02*
X44454Y-14101D01*
X46454D01*
X47453Y-15100D01*
Y-16100D01*
X46454Y-17100D01*
X45454D01*
X46454D01*
X47453Y-18099D01*
Y-19099D01*
X46454Y-20099D01*
X44454D01*
X43455Y-19099D01*
X49453Y-15100D02*
X50452Y-14101D01*
X52452D01*
X53451Y-15100D01*
Y-19099D01*
X52452Y-20099D01*
X50452D01*
X49453Y-19099D01*
Y-15100D01*
X56450Y-21098D02*
X57450Y-20099D01*
Y-19099D01*
X56450D01*
Y-20099D01*
X57450D01*
X56450Y-21098D01*
X55451Y-22098D01*
X61449Y-15100D02*
X62448Y-14101D01*
X64448D01*
X65447Y-15100D01*
Y-19099D01*
X64448Y-20099D01*
X62448D01*
X61449Y-19099D01*
Y-15100D01*
X67447D02*
X68446Y-14101D01*
X70446D01*
X71446Y-15100D01*
Y-19099D01*
X70446Y-20099D01*
X68446D01*
X67447Y-19099D01*
Y-15100D01*
D24*
X115394Y59900D02*
X135500D01*
X115094Y3100D02*
X135500D01*
X134500Y44996D02*
Y59900D01*
Y3100D02*
Y14804D01*
X132500Y53900D02*
X134500Y59900D01*
X136500Y53900D01*
X134500Y3100D02*
X136500Y9100D01*
X132500D02*
X134500Y3100D01*
X118100Y-16500D02*
Y6106D01*
X0Y-16500D02*
Y6106D01*
X73045Y-15500D02*
X118100D01*
X0D02*
X41855D01*
X112100Y-13500D02*
X118100Y-15500D01*
X112100Y-17500D02*
X118100Y-15500D01*
X0D02*
X6000Y-17500D01*
X0Y-15500D02*
X6000Y-13500D01*
X-40158Y78131D02*
Y84129D01*
X-43157Y81130D01*
X-39158D01*
X-37159D02*
X-33160D01*
X-31161Y84129D02*
Y78131D01*
X-27162D01*
X-24163Y82129D02*
X-22163D01*
X-21164Y81130D01*
Y78131D01*
X-24163D01*
X-25163Y79130D01*
X-24163Y80130D01*
X-21164D01*
X-19164Y82129D02*
Y79130D01*
X-18165Y78131D01*
X-15166D01*
Y77131D01*
X-16165Y76131D01*
X-17165D01*
X-15166Y78131D02*
Y82129D01*
X-10167Y78131D02*
X-12167D01*
X-13166Y79130D01*
Y81130D01*
X-12167Y82129D01*
X-10167D01*
X-9168Y81130D01*
Y80130D01*
X-13166D01*
X-7168Y82129D02*
Y78131D01*
Y80130D01*
X-6169Y81130D01*
X-5169Y82129D01*
X-4169D01*
X4828Y78131D02*
X7827D01*
X8827Y79130D01*
X7827Y80130D01*
X5827D01*
X4828Y81130D01*
X5827Y82129D01*
X8827D01*
X11825Y83129D02*
Y82129D01*
X10826D01*
X12825D01*
X11825D01*
Y79130D01*
X12825Y78131D01*
X16824Y82129D02*
X18823D01*
X19823Y81130D01*
Y78131D01*
X16824D01*
X15824Y79130D01*
X16824Y80130D01*
X19823D01*
X25821Y82129D02*
X22822D01*
X21822Y81130D01*
Y79130D01*
X22822Y78131D01*
X25821D01*
X27820D02*
Y84129D01*
Y80130D02*
X30819Y82129D01*
X27820Y80130D02*
X30819Y78131D01*
X33818Y82129D02*
Y79130D01*
X34818Y78131D01*
X37817D01*
Y82129D01*
X39816Y76131D02*
Y82129D01*
X42816D01*
X43815Y81130D01*
Y79130D01*
X42816Y78131D01*
X39816D01*
X46814Y77131D02*
X47814Y78131D01*
Y79130D01*
X46814D01*
Y78131D01*
X47814D01*
X46814Y77131D01*
X45814Y76131D01*
X58810Y83129D02*
Y82129D01*
X57811D01*
X59810D01*
X58810D01*
Y79130D01*
X59810Y78131D01*
X62809Y84129D02*
Y78131D01*
Y81130D01*
X63809Y82129D01*
X65808D01*
X66808Y81130D01*
Y78131D01*
X68807D02*
X70806D01*
X69807D01*
Y82129D01*
X68807D01*
X77804D02*
X74805D01*
X73805Y81130D01*
Y79130D01*
X74805Y78131D01*
X77804D01*
X79804D02*
Y84129D01*
Y80130D02*
X82803Y82129D01*
X79804Y80130D02*
X82803Y78131D01*
X85802D02*
Y82129D01*
X88801D01*
X89800Y81130D01*
Y78131D01*
X94799D02*
X92799D01*
X91800Y79130D01*
Y81130D01*
X92799Y82129D01*
X94799D01*
X95798Y81130D01*
Y80130D01*
X91800D01*
X97798Y78131D02*
X100797D01*
X101796Y79130D01*
X100797Y80130D01*
X98797D01*
X97798Y81130D01*
X98797Y82129D01*
X101796D01*
X103796Y78131D02*
X106795D01*
X107794Y79130D01*
X106795Y80130D01*
X104796D01*
X103796Y81130D01*
X104796Y82129D01*
X107794D01*
X115792Y78131D02*
X117791D01*
X116792D01*
Y84129D01*
X115792Y83129D01*
X120790Y78131D02*
Y79130D01*
X121790D01*
Y78131D01*
X120790D01*
X129787Y84129D02*
X125789D01*
Y81130D01*
X127788Y82129D01*
X128788D01*
X129787Y81130D01*
Y79130D01*
X128788Y78131D01*
X126788D01*
X125789Y79130D01*
X135785Y84129D02*
X131787D01*
Y81130D01*
X133786Y82129D01*
X134786D01*
X135785Y81130D01*
Y79130D01*
X134786Y78131D01*
X132786D01*
X131787Y79130D01*
X137785Y78131D02*
Y82129D01*
X138784D01*
X139784Y81130D01*
Y78131D01*
Y81130D01*
X140784Y82129D01*
X141783Y81130D01*
Y78131D01*
X143783D02*
Y82129D01*
X144782D01*
X145782Y81130D01*
Y78131D01*
Y81130D01*
X146782Y82129D01*
X147782Y81130D01*
Y78131D01*
X-39158Y111575D02*
X-40158Y112574D01*
X-42157D01*
X-43157Y111575D01*
Y110575D01*
X-42157Y109575D01*
X-40158D01*
X-39158Y108575D01*
Y107576D01*
X-40158Y106576D01*
X-42157D01*
X-43157Y107576D01*
X-36159Y111575D02*
Y110575D01*
X-37159D01*
X-35159D01*
X-36159D01*
Y107576D01*
X-35159Y106576D01*
X-32160Y110575D02*
Y106576D01*
Y108575D01*
X-31161Y109575D01*
X-30161Y110575D01*
X-29161D01*
X-26162D02*
Y107576D01*
X-25163Y106576D01*
X-22163D01*
Y110575D01*
X-16165D02*
X-19164D01*
X-20164Y109575D01*
Y107576D01*
X-19164Y106576D01*
X-16165D01*
X-13166Y111575D02*
Y110575D01*
X-14166D01*
X-12167D01*
X-13166D01*
Y107576D01*
X-12167Y106576D01*
X-9168Y110575D02*
Y107576D01*
X-8168Y106576D01*
X-5169D01*
Y110575D01*
X-3170D02*
Y106576D01*
Y108575D01*
X-2170Y109575D01*
X-1170Y110575D01*
X-171D01*
X5827Y106576D02*
X3828D01*
X2828Y107576D01*
Y109575D01*
X3828Y110575D01*
X5827D01*
X6827Y109575D01*
Y108575D01*
X2828D01*
X8827Y106576D02*
X11825D01*
X12825Y107576D01*
X11825Y108575D01*
X9826D01*
X8827Y109575D01*
X9826Y110575D01*
X12825D01*
X14825D02*
X15824D01*
Y109575D01*
X14825D01*
Y110575D01*
Y107576D02*
X15824D01*
Y106576D01*
X14825D01*
Y107576D01*
X29820Y112574D02*
X27820Y111575D01*
X25821Y109575D01*
Y107576D01*
X26821Y106576D01*
X28820D01*
X29820Y107576D01*
Y108575D01*
X28820Y109575D01*
X25821D01*
X31819Y106576D02*
Y110575D01*
X32819D01*
X33818Y109575D01*
Y106576D01*
Y109575D01*
X34818Y110575D01*
X35818Y109575D01*
Y106576D01*
X37817D02*
X39816D01*
X38817D01*
Y110575D01*
X37817D01*
X42816Y106576D02*
X44815D01*
X43815D01*
Y112574D01*
X42816D01*
X-39158Y98438D02*
X-40158Y99438D01*
X-42157D01*
X-43157Y98438D01*
Y97439D01*
X-42157Y96439D01*
X-40158D01*
X-39158Y95439D01*
Y94440D01*
X-40158Y93440D01*
X-42157D01*
X-43157Y94440D01*
X-37159Y93440D02*
Y97439D01*
X-36159D01*
X-35159Y96439D01*
Y93440D01*
Y96439D01*
X-34160Y97439D01*
X-33160Y96439D01*
Y93440D01*
X-30161Y97439D02*
X-28161D01*
X-27162Y96439D01*
Y93440D01*
X-30161D01*
X-31161Y94440D01*
X-30161Y95439D01*
X-27162D01*
X-25163Y93440D02*
X-23163D01*
X-24163D01*
Y99438D01*
X-25163D01*
X-20164Y93440D02*
X-18165D01*
X-19164D01*
Y99438D01*
X-20164D01*
X-12167Y93440D02*
X-14166D01*
X-15166Y94440D01*
Y96439D01*
X-14166Y97439D01*
X-12167D01*
X-11167Y96439D01*
Y95439D01*
X-15166D01*
X-9168Y93440D02*
X-6169D01*
X-5169Y94440D01*
X-6169Y95439D01*
X-8168D01*
X-9168Y96439D01*
X-8168Y97439D01*
X-5169D01*
X-2170Y98438D02*
Y97439D01*
X-3170D01*
X-1170D01*
X-2170D01*
Y94440D01*
X-1170Y93440D01*
X7827Y97439D02*
X9826Y93440D01*
X11825Y97439D01*
X13825Y93440D02*
X15824D01*
X14825D01*
Y97439D01*
X13825D01*
X19823D02*
X21822D01*
X22822Y96439D01*
Y93440D01*
X19823D01*
X18823Y94440D01*
X19823Y95439D01*
X22822D01*
X24821Y97439D02*
X25821D01*
Y96439D01*
X24821D01*
Y97439D01*
Y94440D02*
X25821D01*
Y93440D01*
X24821D01*
Y94440D01*
X35818Y93440D02*
X38817Y96439D01*
X35818Y99438D01*
X40816Y95439D02*
X44815D01*
X40816Y97439D02*
X44815D01*
X52812Y98438D02*
X53812Y99438D01*
X55811D01*
X56811Y98438D01*
Y94440D01*
X55811Y93440D01*
X53812D01*
X52812Y94440D01*
Y98438D01*
X58810Y93440D02*
Y94440D01*
X59810D01*
Y93440D01*
X58810D01*
X67807D02*
X63809D01*
X67807Y97439D01*
Y98438D01*
X66808Y99438D01*
X64808D01*
X63809Y98438D01*
X73805Y99438D02*
X69807D01*
Y96439D01*
X71806Y97439D01*
X72806D01*
X73805Y96439D01*
Y94440D01*
X72806Y93440D01*
X70806D01*
X69807Y94440D01*
X75805Y93440D02*
Y97439D01*
X76805D01*
X77804Y96439D01*
Y93440D01*
Y96439D01*
X78804Y97439D01*
X79804Y96439D01*
Y93440D01*
X81803D02*
Y97439D01*
X82802D01*
X83802Y96439D01*
Y93440D01*
Y96439D01*
X84802Y97439D01*
X85802Y96439D01*
Y93440D01*
D46*
X-67Y-17319D02*
Y81500D01*
M02*
