G04 Layer_Color=65535*
%FSLAX25Y25*%
%MOIN*%
G70*
G01*
G75*
%ADD22C,0.00800*%
%ADD23C,0.00600*%
%ADD34C,0.01181*%
%ADD35C,0.00984*%
%ADD36C,0.00500*%
%ADD37C,0.00787*%
%ADD38C,0.00591*%
%ADD39R,0.02300X0.00650*%
%ADD40R,0.01800X0.06700*%
%ADD41R,0.02560X0.00730*%
D22*
X101499Y40896D02*
G03*
X102349Y40046I850J0D01*
G01*
Y45946D02*
G03*
X101499Y45096I0J-850D01*
G01*
X113261Y40046D02*
G03*
X114111Y40896I0J850D01*
G01*
Y45096D02*
G03*
X113261Y45946I-850J0D01*
G01*
X101399Y48996D02*
G03*
X102249Y48146I850J0D01*
G01*
Y54046D02*
G03*
X101399Y53196I0J-850D01*
G01*
X113161Y48146D02*
G03*
X114011Y48996I0J850D01*
G01*
Y53196D02*
G03*
X113161Y54046I-850J0D01*
G01*
X101499Y40896D02*
Y45096D01*
X114111Y40896D02*
Y45096D01*
X102349Y40046D02*
X113261D01*
X102349Y45946D02*
X113261D01*
X101399Y48996D02*
Y53196D01*
X114011Y48996D02*
Y53196D01*
X102249Y48146D02*
X113161D01*
X102249Y54046D02*
X113161D01*
X112500Y59000D02*
X113500D01*
X5000D02*
X74500D01*
X113000D01*
X113500D02*
X117000Y55500D01*
Y7500D02*
Y55500D01*
X113700Y4200D02*
X117000Y7500D01*
X7700Y4200D02*
X113700D01*
D23*
X92000Y32599D02*
Y28600D01*
X93999D01*
X94666Y29266D01*
Y29933D01*
X93999Y30599D01*
X92000D01*
X93999D01*
X94666Y31266D01*
Y31932D01*
X93999Y32599D01*
X92000D01*
X95999Y28600D02*
Y32599D01*
X97332Y31266D01*
X98664Y32599D01*
Y28600D01*
X102663Y32599D02*
X99997D01*
Y28600D01*
X102663D01*
X99997Y30599D02*
X101330D01*
X106662Y32599D02*
X105329Y31932D01*
X103996Y30599D01*
Y29266D01*
X104663Y28600D01*
X105996D01*
X106662Y29266D01*
Y29933D01*
X105996Y30599D01*
X103996D01*
X107995Y31932D02*
X108661Y32599D01*
X109994D01*
X110661Y31932D01*
Y31266D01*
X109994Y30599D01*
X110661Y29933D01*
Y29266D01*
X109994Y28600D01*
X108661D01*
X107995Y29266D01*
Y29933D01*
X108661Y30599D01*
X107995Y31266D01*
Y31932D01*
X108661Y30599D02*
X109994D01*
X111994Y31932D02*
X112660Y32599D01*
X113993D01*
X114659Y31932D01*
Y29266D01*
X113993Y28600D01*
X112660D01*
X111994Y29266D01*
Y31932D01*
D34*
X21991Y11800D02*
G03*
X21991Y11800I-591J0D01*
G01*
D35*
X78041Y21079D02*
G03*
X78041Y21079I-492J0D01*
G01*
X24805Y29176D02*
G03*
X24805Y29176I-492J0D01*
G01*
X35472Y17685D02*
G03*
X35472Y17685I-492J0D01*
G01*
X99028Y24315D02*
G03*
X99028Y24315I-492J0D01*
G01*
D36*
X23359Y4000D02*
Y58888D01*
X1200Y3941D02*
X23188D01*
X1200Y59059D02*
X23188D01*
X22400Y53400D02*
X19401D01*
Y54900D01*
X19901Y55399D01*
X20900D01*
X21400Y54900D01*
Y53400D01*
X22400Y56399D02*
Y57399D01*
Y56899D01*
X19401D01*
X19901Y56399D01*
X38700Y42199D02*
Y39700D01*
X39200Y39200D01*
X40200D01*
X40699Y39700D01*
Y42199D01*
X43698Y39200D02*
X41699D01*
X43698Y41199D01*
Y41699D01*
X43199Y42199D01*
X42199D01*
X41699Y41699D01*
X26700Y45299D02*
Y42300D01*
X28199D01*
X28699Y42800D01*
Y44799D01*
X28199Y45299D01*
X26700D01*
X29699Y42300D02*
X30699D01*
X30199D01*
Y45299D01*
X29699Y44799D01*
X82700Y21200D02*
X79701D01*
Y22700D01*
X80201Y23199D01*
X81200D01*
X81700Y22700D01*
Y21200D01*
Y22200D02*
X82700Y23199D01*
X79701Y26198D02*
Y24199D01*
X81200D01*
X80701Y25199D01*
Y25699D01*
X81200Y26198D01*
X82200D01*
X82700Y25699D01*
Y24699D01*
X82200Y24199D01*
X103900Y38699D02*
Y35700D01*
X105899D01*
X106899Y38699D02*
Y35700D01*
X108399D01*
X108898Y36200D01*
Y38199D01*
X108399Y38699D01*
X106899D01*
X111897Y35700D02*
X109898D01*
X111897Y37699D01*
Y38199D01*
X111398Y38699D01*
X110398D01*
X109898Y38199D01*
X83601Y48000D02*
X86600D01*
Y49999D01*
Y50999D02*
Y51999D01*
Y51499D01*
X83601D01*
X84101Y50999D01*
X32101Y50399D02*
X31601Y49900D01*
Y48900D01*
X32101Y48400D01*
X34100D01*
X34600Y48900D01*
Y49900D01*
X34100Y50399D01*
X34600Y51399D02*
Y52399D01*
Y51899D01*
X31601D01*
X32101Y51399D01*
X34600Y53898D02*
Y54898D01*
Y54398D01*
X31601D01*
X32101Y53898D01*
X95801Y14000D02*
X98300D01*
X98800Y14500D01*
Y15499D01*
X98300Y15999D01*
X95801D01*
X98800Y16999D02*
Y17999D01*
Y17499D01*
X95801D01*
X96301Y16999D01*
Y19498D02*
X95801Y19998D01*
Y20998D01*
X96301Y21498D01*
X96801D01*
X97300Y20998D01*
Y20498D01*
Y20998D01*
X97800Y21498D01*
X98300D01*
X98800Y20998D01*
Y19998D01*
X98300Y19498D01*
X97099Y9399D02*
X96600Y9899D01*
X95600D01*
X95100Y9399D01*
Y7400D01*
X95600Y6900D01*
X96600D01*
X97099Y7400D01*
X98099Y6900D02*
X99099D01*
X98599D01*
Y9899D01*
X98099Y9399D01*
X56001Y7399D02*
X55501Y6899D01*
Y5900D01*
X56001Y5400D01*
X58000D01*
X58500Y5900D01*
Y6899D01*
X58000Y7399D01*
X58500Y10398D02*
Y8399D01*
X56501Y10398D01*
X56001D01*
X55501Y9899D01*
Y8899D01*
X56001Y8399D01*
X60801Y53999D02*
X60301Y53500D01*
Y52500D01*
X60801Y52000D01*
X62800D01*
X63300Y52500D01*
Y53500D01*
X62800Y53999D01*
X60301Y56998D02*
Y54999D01*
X61800D01*
X61301Y55999D01*
Y56499D01*
X61800Y56998D01*
X62800D01*
X63300Y56499D01*
Y55499D01*
X62800Y54999D01*
X80299Y30399D02*
X79799Y30899D01*
X78800D01*
X78300Y30399D01*
Y28400D01*
X78800Y27900D01*
X79799D01*
X80299Y28400D01*
X83298Y30899D02*
X82299Y30399D01*
X81299Y29399D01*
Y28400D01*
X81799Y27900D01*
X82799D01*
X83298Y28400D01*
Y28900D01*
X82799Y29399D01*
X81299D01*
X86599Y30299D02*
X86099Y30799D01*
X85100D01*
X84600Y30299D01*
Y28300D01*
X85100Y27800D01*
X86099D01*
X86599Y28300D01*
X87599Y30799D02*
X89598D01*
Y30299D01*
X87599Y28300D01*
Y27800D01*
X56801Y54099D02*
X56301Y53600D01*
Y52600D01*
X56801Y52100D01*
X58800D01*
X59300Y52600D01*
Y53600D01*
X58800Y54099D01*
X56801Y55099D02*
X56301Y55599D01*
Y56599D01*
X56801Y57098D01*
X57301D01*
X57801Y56599D01*
X58300Y57098D01*
X58800D01*
X59300Y56599D01*
Y55599D01*
X58800Y55099D01*
X58300D01*
X57801Y55599D01*
X57301Y55099D01*
X56801D01*
X57801Y55599D02*
Y56599D01*
X39301Y31399D02*
X38801Y30900D01*
Y29900D01*
X39301Y29400D01*
X41300D01*
X41800Y29900D01*
Y30900D01*
X41300Y31399D01*
Y32399D02*
X41800Y32899D01*
Y33899D01*
X41300Y34398D01*
X39301D01*
X38801Y33899D01*
Y32899D01*
X39301Y32399D01*
X39801D01*
X40301Y32899D01*
Y34398D01*
X80101Y12499D02*
X79601Y11999D01*
Y11000D01*
X80101Y10500D01*
X82100D01*
X82600Y11000D01*
Y11999D01*
X82100Y12499D01*
X82600Y13499D02*
Y14499D01*
Y13999D01*
X79601D01*
X80101Y13499D01*
Y15998D02*
X79601Y16498D01*
Y17498D01*
X80101Y17998D01*
X82100D01*
X82600Y17498D01*
Y16498D01*
X82100Y15998D01*
X80101D01*
X104000Y58099D02*
Y55100D01*
X105999D01*
X106999Y58099D02*
Y55100D01*
X108499D01*
X108998Y55600D01*
Y57599D01*
X108499Y58099D01*
X106999D01*
X109998Y55100D02*
X110998D01*
X110498D01*
Y58099D01*
X109998Y57599D01*
X61600Y7000D02*
Y9999D01*
X63099D01*
X63599Y9499D01*
Y8500D01*
X63099Y8000D01*
X61600D01*
X62600D02*
X63599Y7000D01*
X64599D02*
X65599D01*
X65099D01*
Y9999D01*
X64599Y9499D01*
X91700Y55500D02*
Y58499D01*
X93199D01*
X93699Y57999D01*
Y56999D01*
X93199Y56500D01*
X91700D01*
X92700D02*
X93699Y55500D01*
X96698D02*
X94699D01*
X96698Y57499D01*
Y57999D01*
X96199Y58499D01*
X95199D01*
X94699Y57999D01*
X91800Y39900D02*
Y42899D01*
X93300D01*
X93799Y42399D01*
Y41399D01*
X93300Y40900D01*
X91800D01*
X92800D02*
X93799Y39900D01*
X94799Y42399D02*
X95299Y42899D01*
X96299D01*
X96798Y42399D01*
Y41899D01*
X96299Y41399D01*
X95799D01*
X96299D01*
X96798Y40900D01*
Y40400D01*
X96299Y39900D01*
X95299D01*
X94799Y40400D01*
X86500Y11400D02*
Y14399D01*
X87999D01*
X88499Y13899D01*
Y12900D01*
X87999Y12400D01*
X86500D01*
X87500D02*
X88499Y11400D01*
X90999D02*
Y14399D01*
X89499Y12900D01*
X91498D01*
X77400Y9699D02*
Y6700D01*
X78900D01*
X79399Y7200D01*
Y7700D01*
X78900Y8200D01*
X77400D01*
X78900D01*
X79399Y8699D01*
Y9199D01*
X78900Y9699D01*
X77400D01*
X80399D02*
X82398D01*
Y9199D01*
X80399Y7200D01*
Y6700D01*
X88400Y9299D02*
Y6300D01*
X89899D01*
X90399Y6800D01*
Y7300D01*
X89899Y7800D01*
X88400D01*
X89899D01*
X90399Y8299D01*
Y8799D01*
X89899Y9299D01*
X88400D01*
X93398D02*
X92399Y8799D01*
X91399Y7800D01*
Y6800D01*
X91899Y6300D01*
X92899D01*
X93398Y6800D01*
Y7300D01*
X92899Y7800D01*
X91399D01*
D37*
X46827Y20327D02*
X48008D01*
X46827D02*
Y21508D01*
Y48673D02*
X48008D01*
X46827Y47492D02*
Y48673D01*
X73992D02*
X75173D01*
Y47492D02*
Y48673D01*
X73992Y20327D02*
X75173D01*
Y21508D01*
X25495Y32916D02*
Y34884D01*
X37306Y32916D02*
Y34884D01*
X25495Y32916D02*
X37306D01*
X25495Y34884D02*
X37306D01*
X38819Y16209D02*
X41181D01*
X38819Y4791D02*
X41181D01*
X38819D02*
Y16209D01*
X41181Y4791D02*
Y16209D01*
X82176Y51706D02*
Y52494D01*
X79224Y51706D02*
Y52494D01*
X104331Y12000D02*
X114000D01*
X100000D02*
Y26000D01*
X114000D01*
Y12000D02*
Y26000D01*
X100000Y12000D02*
X104331D01*
D38*
X83531Y20744D02*
Y21500D01*
Y20744D02*
X93532D01*
Y21500D01*
Y25500D02*
Y26256D01*
X83531D02*
X93532D01*
X83531Y25500D02*
Y26256D01*
X39775Y45588D02*
X40956D01*
Y56612D01*
X39775D02*
X40956D01*
X35444D02*
X36625D01*
X35444Y45588D02*
Y56612D01*
Y45588D02*
X36625D01*
X110812Y9575D02*
Y10756D01*
X99788D02*
X110812D01*
X99788Y9575D02*
Y10756D01*
Y5244D02*
Y6425D01*
Y5244D02*
X110812D01*
Y6425D01*
X53175Y5288D02*
X54356D01*
Y16312D01*
X53175D02*
X54356D01*
X48844D02*
X50025D01*
X48844Y5288D02*
Y16312D01*
Y5288D02*
X50025D01*
X24788Y18444D02*
Y19625D01*
Y18444D02*
X35812D01*
Y19625D01*
Y22775D02*
Y23956D01*
X24788D02*
X35812D01*
X24788Y22775D02*
Y23956D01*
X29575Y4988D02*
X30756D01*
Y16012D01*
X29575D02*
X30756D01*
X25244D02*
X26425D01*
X25244Y4988D02*
Y16012D01*
Y4988D02*
X26425D01*
X63988Y51544D02*
Y52725D01*
Y51544D02*
X75012D01*
Y52725D01*
Y55875D02*
Y57056D01*
X63988D02*
X75012D01*
X63988Y55875D02*
Y57056D01*
X82575Y31888D02*
X83756D01*
Y42912D01*
X82575D02*
X83756D01*
X78244D02*
X79425D01*
X78244Y31888D02*
Y42912D01*
Y31888D02*
X79425D01*
X88075D02*
X89256D01*
Y42912D01*
X88075D02*
X89256D01*
X83744D02*
X84925D01*
X83744Y31888D02*
Y42912D01*
Y31888D02*
X84925D01*
X55612Y55475D02*
Y56656D01*
X44588D02*
X55612D01*
X44588Y55475D02*
Y56656D01*
Y51144D02*
Y52325D01*
Y51144D02*
X55612D01*
Y52325D01*
X36944Y28512D02*
X38125D01*
X36944Y17488D02*
Y28512D01*
Y17488D02*
X38125D01*
X41275D02*
X42456D01*
Y28512D01*
X41275D02*
X42456D01*
X67688Y11444D02*
Y12625D01*
Y11444D02*
X78712D01*
Y12625D01*
Y15775D02*
Y16956D01*
X67688D02*
X78712D01*
X67688Y15775D02*
Y16956D01*
X57700Y10944D02*
Y11700D01*
Y10944D02*
X67700D01*
Y11700D01*
Y15700D02*
Y16456D01*
X57700D02*
X67700D01*
X57700Y15700D02*
Y16456D01*
X88900Y49244D02*
Y50000D01*
Y49244D02*
X98900D01*
Y50000D01*
Y54000D02*
Y54756D01*
X88900D02*
X98900D01*
X88900Y54000D02*
Y54756D01*
Y43844D02*
Y44600D01*
Y43844D02*
X98900D01*
Y44600D01*
Y48600D02*
Y49356D01*
X88900D02*
X98900D01*
X88900Y48600D02*
Y49356D01*
X83500Y15244D02*
Y16000D01*
Y15244D02*
X93500D01*
Y16000D01*
Y20000D02*
Y20756D01*
X83500D02*
X93500D01*
X83500Y20000D02*
Y20756D01*
D39*
X101891Y39974D02*
D03*
X101791Y48074D02*
D03*
D40*
X100891Y42999D02*
D03*
X100791Y51099D02*
D03*
D41*
X102021Y45983D02*
D03*
X101921Y54083D02*
D03*
M02*
