G04 Layer_Physical_Order=4*
G04 Layer_Color=16711680*
%FSLAX25Y25*%
%MOIN*%
G70*
G01*
G75*
%ADD21C,0.03937*%
%ADD22C,0.00800*%
%ADD23C,0.00600*%
G04:AMPARAMS|DCode=29|XSize=59.06mil|YSize=118.11mil|CornerRadius=20.67mil|HoleSize=0mil|Usage=FLASHONLY|Rotation=270.000|XOffset=0mil|YOffset=0mil|HoleType=Round|Shape=RoundedRectangle|*
%AMROUNDEDRECTD29*
21,1,0.05906,0.07677,0,0,270.0*
21,1,0.01772,0.11811,0,0,270.0*
1,1,0.04134,-0.03839,-0.00886*
1,1,0.04134,-0.03839,0.00886*
1,1,0.04134,0.03839,0.00886*
1,1,0.04134,0.03839,-0.00886*
%
%ADD29ROUNDEDRECTD29*%
%ADD30C,0.06299*%
%ADD31C,0.05118*%
%ADD32C,0.02598*%
%ADD33C,0.02500*%
G36*
X117087Y55380D02*
Y7920D01*
X113280Y4113D01*
X46995D01*
X46810Y4613D01*
X48360Y6163D01*
X48559Y6461D01*
X48559Y6461D01*
X49049Y6951D01*
X49248Y7249D01*
X49318Y7600D01*
Y9900D01*
X49248Y10251D01*
X49049Y10549D01*
X48589Y11009D01*
X48686Y11500D01*
X48543Y12222D01*
X48134Y12834D01*
X47522Y13243D01*
X46800Y13386D01*
X46078Y13243D01*
X45466Y12834D01*
X45057Y12222D01*
X44914Y11500D01*
X44998Y11074D01*
X44964Y10969D01*
X44652Y10574D01*
X44629Y10563D01*
X44172Y10502D01*
X43794Y10346D01*
X42618Y11523D01*
Y16620D01*
X43430Y17432D01*
X44791D01*
X45142Y17502D01*
X45213Y17550D01*
X45663Y17249D01*
X45614Y17000D01*
X45757Y16278D01*
X46166Y15666D01*
X46778Y15257D01*
X47500Y15114D01*
X48222Y15257D01*
X48834Y15666D01*
X49243Y16278D01*
X49386Y17000D01*
X49243Y17722D01*
X48834Y18334D01*
X48752Y18389D01*
X48731Y18464D01*
X48786Y18967D01*
X49234Y19266D01*
X49643Y19878D01*
X49771Y20524D01*
X50013Y20662D01*
X50270Y20733D01*
X53767Y17235D01*
Y10400D01*
X53390Y10244D01*
X52853Y9832D01*
X52442Y9295D01*
X52183Y8670D01*
X52094Y8000D01*
X52183Y7329D01*
X52442Y6705D01*
X52853Y6168D01*
X53390Y5756D01*
X54014Y5498D01*
X54685Y5409D01*
X55356Y5498D01*
X55980Y5756D01*
X56517Y6168D01*
X56929Y6705D01*
X57187Y7329D01*
X57276Y8000D01*
X57187Y8670D01*
X56929Y9295D01*
X56517Y9832D01*
X55980Y10244D01*
X55603Y10400D01*
Y17615D01*
X55533Y17966D01*
X55334Y18264D01*
X49649Y23949D01*
X49351Y24148D01*
X49000Y24218D01*
X48080D01*
X45489Y26809D01*
X45586Y27300D01*
X45443Y28022D01*
X45034Y28634D01*
X44826Y28772D01*
X44534Y29166D01*
X44943Y29778D01*
X45086Y30500D01*
X44943Y31222D01*
X44534Y31834D01*
X43922Y32243D01*
X43200Y32386D01*
X42478Y32243D01*
X42224Y32073D01*
X38549Y35749D01*
X38251Y35948D01*
X37900Y36018D01*
X30212D01*
X29934Y36434D01*
X29322Y36843D01*
X28600Y36986D01*
X27878Y36843D01*
X27266Y36434D01*
X26857Y35822D01*
X26714Y35100D01*
X26857Y34378D01*
X27266Y33766D01*
X27878Y33357D01*
X28600Y33214D01*
X29322Y33357D01*
X29934Y33766D01*
X30212Y34182D01*
X37520D01*
X41341Y30361D01*
X41457Y29778D01*
X41866Y29166D01*
X42074Y29028D01*
X42366Y28634D01*
X41957Y28022D01*
X41814Y27300D01*
X41957Y26578D01*
X42366Y25966D01*
X42978Y25557D01*
X43700Y25414D01*
X44191Y25511D01*
X46937Y22766D01*
X46949Y22324D01*
X46896Y22154D01*
X46566Y21934D01*
X46157Y21322D01*
X46145Y21260D01*
X45710Y21227D01*
X45631Y21239D01*
X45234Y21834D01*
X44622Y22243D01*
X43900Y22386D01*
X43178Y22243D01*
X42566Y21834D01*
X42157Y21222D01*
X42014Y20500D01*
X42157Y19778D01*
X42566Y19166D01*
X42234Y18832D01*
X41051Y17649D01*
X40852Y17351D01*
X40782Y17000D01*
Y11142D01*
X40852Y10791D01*
X41051Y10494D01*
X42497Y9048D01*
X42340Y8670D01*
X42314Y8476D01*
X41787Y8297D01*
X41435Y8649D01*
X41137Y8848D01*
X40786Y8918D01*
X37400D01*
X37244Y9295D01*
X36832Y9832D01*
X36295Y10244D01*
X35671Y10502D01*
X35000Y10591D01*
X34330Y10502D01*
X33705Y10244D01*
X33168Y9832D01*
X32756Y9295D01*
X32498Y8670D01*
X32409Y8000D01*
X32498Y7329D01*
X32756Y6705D01*
X33168Y6168D01*
X33705Y5756D01*
X34330Y5498D01*
X35000Y5409D01*
X35671Y5498D01*
X36295Y5756D01*
X36832Y6168D01*
X37244Y6705D01*
X37400Y7082D01*
X38231D01*
X38498Y6582D01*
X38257Y6222D01*
X38114Y5500D01*
X38257Y4778D01*
X38368Y4613D01*
X38100Y4113D01*
X15686D01*
X15596Y4595D01*
X16342Y4904D01*
X16983Y5395D01*
X17474Y6036D01*
X17783Y6782D01*
X17889Y7583D01*
Y7969D01*
X10957D01*
X4025D01*
Y7583D01*
X4130Y6782D01*
X4439Y6036D01*
X4931Y5395D01*
X5571Y4904D01*
X6318Y4595D01*
X6228Y4113D01*
X4820D01*
X1013Y7920D01*
Y55580D01*
X4320Y58887D01*
X6228D01*
X6318Y58405D01*
X5571Y58096D01*
X4931Y57605D01*
X4439Y56964D01*
X4130Y56218D01*
X4025Y55417D01*
Y55031D01*
X10957D01*
X17889D01*
Y55417D01*
X17783Y56218D01*
X17474Y56964D01*
X16983Y57605D01*
X16342Y58096D01*
X15596Y58405D01*
X15686Y58887D01*
X113580D01*
X117087Y55380D01*
D02*
G37*
%LPC*%
G36*
X65700Y57591D02*
X65030Y57502D01*
X64405Y57244D01*
X63868Y56832D01*
X63456Y56295D01*
X63198Y55670D01*
X63109Y55000D01*
X63153Y54669D01*
X62780Y54311D01*
X62400Y54386D01*
X61678Y54243D01*
X61066Y53834D01*
X60799Y53434D01*
X60634D01*
X60022Y53843D01*
X59300Y53986D01*
X58741Y53875D01*
X58180Y54132D01*
X58143Y54322D01*
X57734Y54934D01*
X57122Y55343D01*
X56400Y55486D01*
X55678Y55343D01*
X55066Y54934D01*
X54657Y54322D01*
X54514Y53600D01*
X54657Y52878D01*
X55066Y52266D01*
X55678Y51857D01*
X56232Y51747D01*
Y51209D01*
X56302Y50858D01*
X56501Y50561D01*
X57780Y49281D01*
X57589Y48820D01*
X48544D01*
X48334Y49134D01*
X47722Y49543D01*
X47000Y49686D01*
X46278Y49543D01*
X45666Y49134D01*
X45257Y48522D01*
X45114Y47800D01*
X45257Y47078D01*
X45666Y46466D01*
X46278Y46057D01*
X47000Y45914D01*
X47722Y46057D01*
X48334Y46466D01*
X48544Y46780D01*
X58299D01*
X60000Y45079D01*
X60331Y44858D01*
X60721Y44780D01*
X84555D01*
X84872Y44394D01*
X84814Y44100D01*
X84957Y43378D01*
X85366Y42766D01*
X85377Y42662D01*
X84939Y42169D01*
X51720D01*
X49668Y44221D01*
X49338Y44442D01*
X48947Y44520D01*
X45244D01*
X45034Y44834D01*
X44422Y45243D01*
X43700Y45386D01*
X42978Y45243D01*
X42366Y44834D01*
X42260Y44675D01*
X41760Y44827D01*
Y52600D01*
X42138Y52756D01*
X42674Y53168D01*
X43086Y53705D01*
X43345Y54330D01*
X43433Y55000D01*
X43345Y55670D01*
X43086Y56295D01*
X42674Y56832D01*
X42138Y57244D01*
X41513Y57502D01*
X40843Y57591D01*
X40172Y57502D01*
X39547Y57244D01*
X39011Y56832D01*
X38599Y56295D01*
X38340Y55670D01*
X38252Y55000D01*
X38340Y54330D01*
X38599Y53705D01*
X39011Y53168D01*
X39547Y52756D01*
X39925Y52600D01*
Y41123D01*
X39391Y40589D01*
X38900Y40686D01*
X38178Y40543D01*
X37566Y40134D01*
X37157Y39522D01*
X37014Y38800D01*
X37157Y38078D01*
X37566Y37466D01*
X38178Y37057D01*
X38900Y36914D01*
X39622Y37057D01*
X40234Y37466D01*
X40643Y38078D01*
X40786Y38800D01*
X40689Y39291D01*
X41491Y40094D01*
X41690Y40391D01*
X41760Y40742D01*
Y42173D01*
X42260Y42325D01*
X42366Y42166D01*
X42978Y41757D01*
X43700Y41614D01*
X44422Y41757D01*
X45034Y42166D01*
X45244Y42480D01*
X48525D01*
X50577Y40429D01*
X50907Y40208D01*
X51298Y40130D01*
X85850D01*
X86240Y40208D01*
X86571Y40429D01*
X87421Y41279D01*
X87642Y41610D01*
X87720Y42000D01*
Y42556D01*
X88034Y42766D01*
X88443Y43378D01*
X88497Y43654D01*
X89040Y43818D01*
X90402Y42456D01*
X90457Y42178D01*
X90866Y41566D01*
X91478Y41157D01*
X92200Y41014D01*
X92922Y41157D01*
X93534Y41566D01*
X93943Y42178D01*
X94086Y42900D01*
X93943Y43622D01*
X93534Y44234D01*
X92922Y44643D01*
X92200Y44786D01*
X91478Y44643D01*
X91251Y44491D01*
X90022Y45720D01*
X90213Y46182D01*
X96620D01*
X100482Y42320D01*
Y29380D01*
X96491Y25389D01*
X96000Y25486D01*
X95278Y25343D01*
X94666Y24934D01*
X94257Y24322D01*
X94114Y23600D01*
X94257Y22878D01*
X94666Y22266D01*
X95278Y21857D01*
X96000Y21714D01*
X96722Y21857D01*
X97334Y22266D01*
X97743Y22878D01*
X97886Y23600D01*
X97789Y24091D01*
X102049Y28351D01*
X102248Y28649D01*
X102318Y29000D01*
Y42700D01*
X102248Y43051D01*
X102049Y43349D01*
X98227Y47170D01*
X98419Y47632D01*
X106230D01*
X106651Y47517D01*
X106782Y47157D01*
X106857Y46778D01*
X107266Y46166D01*
X107878Y45757D01*
X108600Y45614D01*
X109322Y45757D01*
X109934Y46166D01*
X110343Y46778D01*
X110382Y46978D01*
X110882Y46929D01*
Y39621D01*
X109401Y38139D01*
X109202Y37842D01*
X109132Y37491D01*
Y35709D01*
X109202Y35358D01*
X109401Y35061D01*
X110882Y33579D01*
Y27512D01*
X110466Y27234D01*
X110057Y26622D01*
X109914Y25900D01*
X110057Y25178D01*
X110466Y24566D01*
X111078Y24157D01*
X111800Y24014D01*
X112522Y24157D01*
X113134Y24566D01*
X113543Y25178D01*
X113686Y25900D01*
X113543Y26622D01*
X113134Y27234D01*
X112718Y27512D01*
Y33959D01*
X112648Y34311D01*
X112888Y34851D01*
X112922Y34857D01*
X113534Y35266D01*
X113943Y35878D01*
X114086Y36600D01*
X113943Y37322D01*
X113534Y37934D01*
X112922Y38343D01*
X112888Y38349D01*
X112648Y38889D01*
X112718Y39241D01*
Y47700D01*
X112648Y48051D01*
X112449Y48349D01*
X110499Y50299D01*
X110201Y50498D01*
X109850Y50568D01*
X107709D01*
X107358Y50498D01*
X107061Y50299D01*
X106229Y49468D01*
X89348D01*
X89316Y49499D01*
X89019Y49698D01*
X88668Y49768D01*
X84733D01*
X84381Y49698D01*
X84084Y49499D01*
X84052Y49468D01*
X78032D01*
X77796Y49909D01*
X77843Y49978D01*
X77986Y50700D01*
X77843Y51422D01*
X77434Y52034D01*
X77500Y52591D01*
X77732Y52768D01*
X78144Y53305D01*
X78402Y53930D01*
X78491Y54600D01*
X78402Y55270D01*
X78144Y55895D01*
X77732Y56432D01*
X77195Y56844D01*
X76570Y57102D01*
X75900Y57191D01*
X75230Y57102D01*
X74605Y56844D01*
X74068Y56432D01*
X73656Y55895D01*
X73398Y55270D01*
X73309Y54600D01*
X73398Y53930D01*
X73656Y53305D01*
X74068Y52768D01*
X74487Y52447D01*
X74607Y52270D01*
X74617Y51810D01*
X74357Y51422D01*
X74214Y50700D01*
X74357Y49978D01*
X74404Y49909D01*
X74168Y49468D01*
X63690D01*
X62895Y50262D01*
X63040Y50741D01*
X63122Y50757D01*
X63734Y51166D01*
X64143Y51778D01*
X64243Y52282D01*
X64678Y52582D01*
X64776Y52603D01*
X65030Y52498D01*
X65700Y52409D01*
X66370Y52498D01*
X66995Y52756D01*
X67532Y53168D01*
X67944Y53705D01*
X68202Y54330D01*
X68291Y55000D01*
X68202Y55670D01*
X67944Y56295D01*
X67532Y56832D01*
X66995Y57244D01*
X66370Y57502D01*
X65700Y57591D01*
D02*
G37*
G36*
X84200Y57086D02*
X83478Y56943D01*
X82866Y56534D01*
X82457Y55922D01*
X82314Y55200D01*
X82457Y54478D01*
X82866Y53866D01*
X83478Y53457D01*
X84200Y53314D01*
X84922Y53457D01*
X85534Y53866D01*
X85943Y54478D01*
X86086Y55200D01*
X85943Y55922D01*
X85534Y56534D01*
X84922Y56943D01*
X84200Y57086D01*
D02*
G37*
G36*
X31000Y57591D02*
X30329Y57502D01*
X29705Y57244D01*
X29168Y56832D01*
X28756Y56295D01*
X28498Y55670D01*
X28409Y55000D01*
X28498Y54330D01*
X28756Y53705D01*
X29168Y53168D01*
X29315Y53055D01*
X29299Y52556D01*
X29266Y52534D01*
X28857Y51922D01*
X28714Y51200D01*
X28857Y50478D01*
X29266Y49866D01*
X29878Y49457D01*
X30600Y49314D01*
X31322Y49457D01*
X31934Y49866D01*
X32343Y50478D01*
X32486Y51200D01*
X32343Y51922D01*
X32179Y52167D01*
X32295Y52756D01*
X32742Y53099D01*
X33059Y53120D01*
X33374Y53054D01*
X33566Y52766D01*
X34178Y52357D01*
X34900Y52214D01*
X35622Y52357D01*
X36234Y52766D01*
X36643Y53378D01*
X36786Y54100D01*
X36643Y54822D01*
X36234Y55434D01*
X35622Y55843D01*
X34900Y55986D01*
X34178Y55843D01*
X34000Y55723D01*
X33924Y55715D01*
X33398Y55923D01*
X33244Y56295D01*
X32832Y56832D01*
X32295Y57244D01*
X31670Y57502D01*
X31000Y57591D01*
D02*
G37*
G36*
X17889Y54031D02*
X11457D01*
Y50552D01*
X14795D01*
X15596Y50658D01*
X16342Y50967D01*
X16983Y51458D01*
X17474Y52099D01*
X17783Y52845D01*
X17889Y53646D01*
Y54031D01*
D02*
G37*
G36*
X10457D02*
X4025D01*
Y53646D01*
X4130Y52845D01*
X4439Y52099D01*
X4931Y51458D01*
X5571Y50967D01*
X6318Y50658D01*
X7118Y50552D01*
X10457D01*
Y54031D01*
D02*
G37*
G36*
X19724Y49399D02*
Y45780D01*
X23344D01*
X23267Y46363D01*
X22849Y47372D01*
X22184Y48239D01*
X21317Y48904D01*
X20308Y49322D01*
X19724Y49399D01*
D02*
G37*
G36*
X18724D02*
X18141Y49322D01*
X17132Y48904D01*
X16265Y48239D01*
X15600Y47372D01*
X15182Y46363D01*
X15105Y45780D01*
X18724D01*
Y49399D01*
D02*
G37*
G36*
X23344Y44780D02*
X19724D01*
Y41160D01*
X20308Y41237D01*
X21317Y41655D01*
X22184Y42320D01*
X22849Y43187D01*
X23267Y44196D01*
X23344Y44780D01*
D02*
G37*
G36*
X18724D02*
X15105D01*
X15182Y44196D01*
X15600Y43187D01*
X16265Y42320D01*
X17132Y41655D01*
X18141Y41237D01*
X18724Y41160D01*
Y44780D01*
D02*
G37*
G36*
X10957Y43741D02*
X10132Y43633D01*
X9364Y43315D01*
X8704Y42808D01*
X8197Y42148D01*
X7879Y41380D01*
X7770Y40555D01*
X7879Y39730D01*
X8197Y38962D01*
X8704Y38302D01*
X9364Y37796D01*
X10132Y37477D01*
X10957Y37369D01*
X11781Y37477D01*
X12550Y37796D01*
X13210Y38302D01*
X13716Y38962D01*
X14034Y39730D01*
X14143Y40555D01*
X14034Y41380D01*
X13716Y42148D01*
X13210Y42808D01*
X12550Y43315D01*
X11781Y43633D01*
X10957Y43741D01*
D02*
G37*
G36*
X85900Y29086D02*
X85178Y28943D01*
X84566Y28534D01*
X84157Y27922D01*
X84014Y27200D01*
X84157Y26478D01*
X84566Y25866D01*
X85178Y25457D01*
X85900Y25314D01*
X86622Y25457D01*
X87234Y25866D01*
X87643Y26478D01*
X87786Y27200D01*
X87643Y27922D01*
X87234Y28534D01*
X86622Y28943D01*
X85900Y29086D01*
D02*
G37*
G36*
X19224Y39219D02*
X18246Y39090D01*
X17333Y38712D01*
X16550Y38111D01*
X15949Y37328D01*
X15571Y36416D01*
X15442Y35437D01*
X15571Y34458D01*
X15949Y33546D01*
X16550Y32763D01*
X17333Y32162D01*
X18246Y31784D01*
X18487Y31752D01*
Y31248D01*
X18246Y31216D01*
X17333Y30838D01*
X16550Y30237D01*
X15949Y29454D01*
X15571Y28542D01*
X15442Y27563D01*
X15571Y26584D01*
X15949Y25672D01*
X16550Y24889D01*
X17333Y24288D01*
X18246Y23910D01*
X19224Y23781D01*
X20203Y23910D01*
X21115Y24288D01*
X21899Y24889D01*
X22500Y25672D01*
X22877Y26584D01*
X23006Y27563D01*
X22877Y28542D01*
X22500Y29454D01*
X21899Y30237D01*
X21115Y30838D01*
X20203Y31216D01*
X19962Y31248D01*
Y31752D01*
X20203Y31784D01*
X21115Y32162D01*
X21899Y32763D01*
X22500Y33546D01*
X22877Y34458D01*
X23006Y35437D01*
X22877Y36416D01*
X22500Y37328D01*
X21899Y38111D01*
X21115Y38712D01*
X20203Y39090D01*
X19224Y39219D01*
D02*
G37*
G36*
X10957Y25631D02*
X10132Y25523D01*
X9364Y25204D01*
X8704Y24698D01*
X8197Y24038D01*
X7879Y23270D01*
X7770Y22445D01*
X7879Y21620D01*
X8197Y20852D01*
X8704Y20192D01*
X9364Y19685D01*
X10132Y19367D01*
X10957Y19259D01*
X11781Y19367D01*
X12550Y19685D01*
X13210Y20192D01*
X13716Y20852D01*
X14034Y21620D01*
X14143Y22445D01*
X14034Y23270D01*
X13716Y24038D01*
X13210Y24698D01*
X12550Y25204D01*
X11781Y25523D01*
X10957Y25631D01*
D02*
G37*
G36*
X19224Y21502D02*
X18246Y21374D01*
X17333Y20996D01*
X16550Y20395D01*
X15949Y19611D01*
X15571Y18699D01*
X15442Y17720D01*
X15571Y16742D01*
X15949Y15830D01*
X16550Y15046D01*
X17333Y14445D01*
X18246Y14067D01*
X19224Y13938D01*
X20203Y14067D01*
X21115Y14445D01*
X21899Y15046D01*
X22500Y15830D01*
X22877Y16742D01*
X23006Y17720D01*
X22877Y18699D01*
X22500Y19611D01*
X21899Y20395D01*
X21115Y20996D01*
X20203Y21374D01*
X19224Y21502D01*
D02*
G37*
G36*
X80000Y20186D02*
X79278Y20043D01*
X78666Y19634D01*
X78257Y19022D01*
X78114Y18300D01*
X78257Y17578D01*
X78651Y16989D01*
X77401Y15739D01*
X77202Y15442D01*
X77167Y15265D01*
X73688Y11786D01*
X73182D01*
X72831Y11716D01*
X72533Y11517D01*
X70853Y9837D01*
X70654Y9539D01*
X70584Y9188D01*
Y8918D01*
X66928D01*
X66771Y9295D01*
X66359Y9832D01*
X65823Y10244D01*
X65198Y10502D01*
X64528Y10591D01*
X63857Y10502D01*
X63232Y10244D01*
X62696Y9832D01*
X62284Y9295D01*
X62025Y8670D01*
X61937Y8000D01*
X62025Y7329D01*
X62284Y6705D01*
X62696Y6168D01*
X63232Y5756D01*
X63857Y5498D01*
X64528Y5409D01*
X65198Y5498D01*
X65823Y5756D01*
X66359Y6168D01*
X66771Y6705D01*
X66928Y7082D01*
X71200D01*
X71551Y7152D01*
X71849Y7351D01*
X72150Y7653D01*
X72349Y7950D01*
X72419Y8302D01*
Y8808D01*
X73562Y9951D01*
X74068D01*
X74420Y10021D01*
X74717Y10220D01*
X77985Y13487D01*
X78548Y13343D01*
X78866Y12866D01*
X79478Y12457D01*
X80200Y12314D01*
X80922Y12457D01*
X81534Y12866D01*
X81943Y13478D01*
X82086Y14200D01*
X81943Y14922D01*
X81534Y15534D01*
X81032Y15869D01*
X80921Y15951D01*
X80849Y16443D01*
X80851Y16466D01*
X80892Y16671D01*
X81334Y16966D01*
X81743Y17578D01*
X81886Y18300D01*
X81743Y19022D01*
X81334Y19634D01*
X80722Y20043D01*
X80000Y20186D01*
D02*
G37*
G36*
X14795Y12448D02*
X11457D01*
Y8969D01*
X17889D01*
Y9354D01*
X17783Y10155D01*
X17474Y10901D01*
X16983Y11542D01*
X16342Y12033D01*
X15596Y12342D01*
X14795Y12448D01*
D02*
G37*
G36*
X10457D02*
X7118D01*
X6318Y12342D01*
X5571Y12033D01*
X4931Y11542D01*
X4439Y10901D01*
X4130Y10155D01*
X4025Y9354D01*
Y8969D01*
X10457D01*
Y12448D01*
D02*
G37*
G36*
X98700Y9886D02*
X97978Y9743D01*
X97366Y9334D01*
X96957Y8722D01*
X96814Y8000D01*
X96957Y7278D01*
X97366Y6666D01*
X97978Y6257D01*
X98700Y6114D01*
X99422Y6257D01*
X100034Y6666D01*
X100443Y7278D01*
X100586Y8000D01*
X100443Y8722D01*
X100034Y9334D01*
X99422Y9743D01*
X98700Y9886D01*
D02*
G37*
%LPD*%
D21*
X74370Y8000D02*
D03*
X75900Y54600D02*
D03*
X65700Y55000D02*
D03*
X50685D02*
D03*
X40843D02*
D03*
X31000D02*
D03*
X35000Y8000D02*
D03*
X44842D02*
D03*
X54685D02*
D03*
X64528D02*
D03*
D22*
X86700Y42000D02*
Y44100D01*
X85850Y41150D02*
X86700Y42000D01*
X51298Y41150D02*
X85850D01*
X48947Y43500D02*
X51298Y41150D01*
X88500Y45800D02*
X91400Y42900D01*
X60721Y45800D02*
X85218D01*
X88182D02*
X88500D01*
X87632Y46350D02*
X88182Y45800D01*
X85768Y46350D02*
X87632D01*
X85218Y45800D02*
X85768Y46350D01*
X86700Y43600D02*
Y44100D01*
X91400Y42900D02*
X92200D01*
X43700Y43500D02*
X48947D01*
X58721Y47800D02*
X60721Y45800D01*
X47000Y47800D02*
X58721D01*
D23*
X61260Y47100D02*
X84680D01*
X63310Y48550D02*
X84433D01*
X88721Y47100D02*
X97000D01*
X88968Y48550D02*
X106609D01*
X88668Y48850D02*
X88968Y48550D01*
X84733Y48850D02*
X88668D01*
X84433Y48550D02*
X84733Y48850D01*
X88170Y47650D02*
X88721Y47100D01*
X85229Y47650D02*
X88170D01*
X84680Y47100D02*
X85229Y47650D01*
X101400Y29000D02*
Y42700D01*
X97000Y47100D02*
X101400Y42700D01*
X96000Y23600D02*
X101400Y29000D01*
X110050Y35709D02*
X111800Y33959D01*
X110050Y37491D02*
X111800Y39241D01*
Y47700D01*
Y25900D02*
Y33959D01*
X109850Y49650D02*
X111800Y47700D01*
X107709Y49650D02*
X109850D01*
X110050Y35709D02*
Y37491D01*
X106609Y48550D02*
X107709Y49650D01*
X79550Y16350D02*
X80000Y16800D01*
X79309Y16350D02*
X79550D01*
X78050Y15090D02*
X79309Y16350D01*
X78050Y14850D02*
Y15090D01*
X74068Y10869D02*
X78050Y14850D01*
X73182Y10869D02*
X74068D01*
X71502Y9188D02*
X73182Y10869D01*
X71502Y8302D02*
Y9188D01*
X71200Y8000D02*
X71502Y8302D01*
X80000Y16800D02*
Y18300D01*
X64528Y8000D02*
X71200D01*
X46800Y11500D02*
X48400Y9900D01*
Y7600D02*
Y9900D01*
X47711Y6911D02*
X48400Y7600D01*
X47711Y6812D02*
Y6911D01*
X46031Y5131D02*
X47711Y6812D01*
X43654Y5131D02*
X46031D01*
X40786Y8000D02*
X43654Y5131D01*
X35000Y8000D02*
X40786D01*
X41700Y11142D02*
X44842Y8000D01*
X41700Y11142D02*
Y17000D01*
X43050Y18350D01*
X44791D01*
X47041Y20600D01*
X47900D01*
X54685Y8000D02*
Y17615D01*
X49000Y23300D02*
X54685Y17615D01*
X47700Y23300D02*
X49000D01*
X43700Y27300D02*
X47700Y23300D01*
X37900Y35100D02*
X43200Y29800D01*
X40843Y40742D02*
Y55000D01*
X38900Y38800D02*
X40843Y40742D01*
X30600Y54600D02*
X31000Y55000D01*
X30600Y51200D02*
Y54600D01*
X57150Y51209D02*
X61260Y47100D01*
X57150Y51209D02*
Y52850D01*
X56400Y53600D02*
X57150Y52850D01*
X59759Y52100D02*
X63310Y48550D01*
X59300Y52100D02*
X59759D01*
X62400Y52500D02*
X64900Y55000D01*
X65700D01*
X75900Y50900D02*
Y54600D01*
Y50900D02*
X76100Y50700D01*
X28600Y35100D02*
X37900D01*
D29*
X10957Y54532D02*
D03*
Y8468D02*
D03*
D30*
X19224Y17720D02*
D03*
Y27563D02*
D03*
Y35437D02*
D03*
Y45279D02*
D03*
D31*
X10957Y40555D02*
D03*
Y22445D02*
D03*
D32*
X61000Y34500D02*
D03*
X69949Y43449D02*
D03*
X70166Y25292D02*
D03*
X51992Y25252D02*
D03*
X51872Y43827D02*
D03*
D33*
X93900Y12200D02*
D03*
X88300Y56400D02*
D03*
X86700Y44100D02*
D03*
X87200Y30800D02*
D03*
X58500Y7000D02*
D03*
X40000Y5500D02*
D03*
X69700Y10800D02*
D03*
X47500Y17000D02*
D03*
X112200Y36600D02*
D03*
X85900Y27200D02*
D03*
X80000Y18300D02*
D03*
X108600Y47500D02*
D03*
X46800Y11500D02*
D03*
X43700Y27300D02*
D03*
X43200Y30500D02*
D03*
X43500Y48500D02*
D03*
X38900Y38800D02*
D03*
X30600Y51200D02*
D03*
X92200Y42900D02*
D03*
X43700Y43500D02*
D03*
X47000Y47800D02*
D03*
X111800Y25900D02*
D03*
X96000Y23600D02*
D03*
X56400Y53600D02*
D03*
X58500Y56000D02*
D03*
X59300Y52100D02*
D03*
X62400Y52500D02*
D03*
X76100Y50700D02*
D03*
X84200Y55200D02*
D03*
X111400Y7800D02*
D03*
X98700Y8000D02*
D03*
X80200Y14200D02*
D03*
X47900Y20600D02*
D03*
X43900Y20500D02*
D03*
X34900Y54100D02*
D03*
X38900Y10500D02*
D03*
X23900Y12800D02*
D03*
X23800Y9500D02*
D03*
X23700Y6300D02*
D03*
X40100Y29859D02*
D03*
X31900Y42600D02*
D03*
X32109Y31668D02*
D03*
X28600Y35100D02*
D03*
M02*
