G04 Layer_Physical_Order=3*
G04 Layer_Color=16440176*
%FSLAX25Y25*%
%MOIN*%
G70*
G01*
G75*
%ADD22C,0.00800*%
%ADD33C,0.02500*%
G36*
X117087Y55380D02*
Y7920D01*
X113280Y4113D01*
X104762D01*
X104555Y4613D01*
X115120Y15178D01*
X115421Y15379D01*
X115642Y15710D01*
X115720Y16100D01*
Y29800D01*
X115642Y30190D01*
X115421Y30521D01*
X113220Y32722D01*
Y35056D01*
X113534Y35266D01*
X113943Y35878D01*
X114086Y36600D01*
X113943Y37322D01*
X113534Y37934D01*
X112922Y38343D01*
X112200Y38486D01*
X111478Y38343D01*
X110866Y37934D01*
X110457Y37322D01*
X110314Y36600D01*
X110457Y35878D01*
X110866Y35266D01*
X111180Y35056D01*
Y32300D01*
X111258Y31910D01*
X111479Y31579D01*
X113680Y29378D01*
Y27316D01*
X113180Y27164D01*
X113134Y27234D01*
X112522Y27643D01*
X111800Y27786D01*
X111078Y27643D01*
X110466Y27234D01*
X110057Y26622D01*
X109914Y25900D01*
X110057Y25178D01*
X110466Y24566D01*
X111078Y24157D01*
X111800Y24014D01*
X112522Y24157D01*
X113134Y24566D01*
X113180Y24636D01*
X113680Y24484D01*
Y16622D01*
X103178Y6120D01*
X63604D01*
X62320Y7404D01*
Y8300D01*
X62242Y8690D01*
X62021Y9021D01*
X61071Y9971D01*
X60740Y10192D01*
X60350Y10270D01*
X56108D01*
X55718Y10192D01*
X55387Y9971D01*
X54679Y9263D01*
X54458Y8932D01*
X54380Y8542D01*
Y7522D01*
X53378Y6520D01*
X41544D01*
X41334Y6834D01*
X40722Y7243D01*
X40000Y7386D01*
X39278Y7243D01*
X38666Y6834D01*
X38257Y6222D01*
X38114Y5500D01*
X38257Y4778D01*
X38368Y4613D01*
X38100Y4113D01*
X24589D01*
X24545Y4230D01*
X24505Y4613D01*
X25034Y4966D01*
X25443Y5578D01*
X25586Y6300D01*
X25443Y7022D01*
X25034Y7634D01*
Y8099D01*
X25134Y8166D01*
X25543Y8778D01*
X25686Y9500D01*
X25543Y10222D01*
X25150Y10809D01*
X25085Y10946D01*
Y11367D01*
X25234Y11466D01*
X25643Y12078D01*
X25786Y12800D01*
X25643Y13522D01*
X25234Y14134D01*
X24622Y14543D01*
X23900Y14686D01*
X23178Y14543D01*
X22566Y14134D01*
X22157Y13522D01*
X22014Y12800D01*
X22157Y12078D01*
X22550Y11491D01*
X22615Y11354D01*
Y10933D01*
X22466Y10834D01*
X22057Y10222D01*
X21914Y9500D01*
X22057Y8778D01*
X22466Y8166D01*
Y7701D01*
X22366Y7634D01*
X21957Y7022D01*
X21814Y6300D01*
X21957Y5578D01*
X22366Y4966D01*
X22895Y4613D01*
X22855Y4230D01*
X22811Y4113D01*
X4820D01*
X1013Y7920D01*
Y55580D01*
X4320Y58887D01*
X113580D01*
X117087Y55380D01*
D02*
G37*
%LPC*%
G36*
X88300Y58286D02*
X87578Y58143D01*
X86966Y57734D01*
X86557Y57122D01*
X86414Y56400D01*
X86557Y55678D01*
X86966Y55066D01*
X87578Y54657D01*
X88300Y54514D01*
X89022Y54657D01*
X89634Y55066D01*
X90043Y55678D01*
X90186Y56400D01*
X90043Y57122D01*
X89634Y57734D01*
X89022Y58143D01*
X88300Y58286D01*
D02*
G37*
G36*
X14795Y58107D02*
X7118D01*
X6422Y58016D01*
X5773Y57747D01*
X5216Y57319D01*
X4789Y56762D01*
X4520Y56113D01*
X4428Y55417D01*
Y53646D01*
X4520Y52950D01*
X4789Y52301D01*
X5216Y51744D01*
X5773Y51316D01*
X6422Y51047D01*
X7118Y50956D01*
X14795D01*
X15492Y51047D01*
X16140Y51316D01*
X16697Y51744D01*
X17125Y52301D01*
X17393Y52950D01*
X17485Y53646D01*
Y55417D01*
X17393Y56113D01*
X17125Y56762D01*
X16697Y57319D01*
X16140Y57747D01*
X15492Y58016D01*
X14795Y58107D01*
D02*
G37*
G36*
X58500Y57886D02*
X57778Y57743D01*
X57166Y57334D01*
X56757Y56722D01*
X56614Y56000D01*
X56664Y55750D01*
X56400Y55486D01*
X55678Y55343D01*
X55066Y54934D01*
X54657Y54322D01*
X54514Y53600D01*
X54657Y52878D01*
X55066Y52266D01*
X55678Y51857D01*
X56400Y51714D01*
X56959Y51825D01*
X57520Y51568D01*
X57557Y51378D01*
X57966Y50766D01*
X58578Y50357D01*
X59300Y50214D01*
X60022Y50357D01*
X60634Y50766D01*
X60901Y51166D01*
X61066D01*
X61678Y50757D01*
X62400Y50614D01*
X63122Y50757D01*
X63734Y51166D01*
X64143Y51778D01*
X64286Y52500D01*
X64143Y53222D01*
X63734Y53834D01*
X63122Y54243D01*
X62400Y54386D01*
X61678Y54243D01*
X61066Y53834D01*
X60799Y53434D01*
X60634D01*
X60022Y53843D01*
X59621Y53922D01*
X59515Y54453D01*
X59834Y54666D01*
X60243Y55278D01*
X60386Y56000D01*
X60243Y56722D01*
X59834Y57334D01*
X59222Y57743D01*
X58500Y57886D01*
D02*
G37*
G36*
X30600Y53086D02*
X29878Y52943D01*
X29266Y52534D01*
X28857Y51922D01*
X28714Y51200D01*
X28857Y50478D01*
X29266Y49866D01*
X29878Y49457D01*
X30600Y49314D01*
X31322Y49457D01*
X31934Y49866D01*
X32343Y50478D01*
X32486Y51200D01*
X32343Y51922D01*
X31934Y52534D01*
X31322Y52943D01*
X30600Y53086D01*
D02*
G37*
G36*
X76100Y52586D02*
X75378Y52443D01*
X74766Y52034D01*
X74357Y51422D01*
X74214Y50700D01*
X74357Y49978D01*
X74766Y49366D01*
X75378Y48957D01*
X76100Y48814D01*
X76822Y48957D01*
X77434Y49366D01*
X77843Y49978D01*
X77986Y50700D01*
X77843Y51422D01*
X77434Y52034D01*
X76822Y52443D01*
X76100Y52586D01*
D02*
G37*
G36*
X43500Y50386D02*
X42778Y50243D01*
X42166Y49834D01*
X41757Y49222D01*
X41614Y48500D01*
X41757Y47778D01*
X42166Y47166D01*
X42778Y46757D01*
X43500Y46614D01*
X44222Y46757D01*
X44742Y47105D01*
X45044Y47089D01*
X45317Y46989D01*
X45666Y46466D01*
X46278Y46057D01*
X47000Y45914D01*
X47722Y46057D01*
X48334Y46466D01*
X48743Y47078D01*
X48886Y47800D01*
X48743Y48522D01*
X48334Y49134D01*
X47722Y49543D01*
X47000Y49686D01*
X46278Y49543D01*
X45758Y49195D01*
X45456Y49211D01*
X45183Y49311D01*
X44834Y49834D01*
X44222Y50243D01*
X43500Y50386D01*
D02*
G37*
G36*
X86700Y45986D02*
X85978Y45843D01*
X85366Y45434D01*
X84957Y44822D01*
X84814Y44100D01*
X84957Y43378D01*
X85366Y42766D01*
X85978Y42357D01*
X86700Y42214D01*
X87422Y42357D01*
X88034Y42766D01*
X88443Y43378D01*
X88586Y44100D01*
X88443Y44822D01*
X88034Y45434D01*
X87422Y45843D01*
X86700Y45986D01*
D02*
G37*
G36*
X51872Y45763D02*
X51131Y45616D01*
X50503Y45196D01*
X50083Y44568D01*
X49935Y43827D01*
X50083Y43086D01*
X50503Y42458D01*
X51131Y42038D01*
X51872Y41890D01*
X52613Y42038D01*
X53241Y42458D01*
X53661Y43086D01*
X53808Y43827D01*
X53661Y44568D01*
X53241Y45196D01*
X52613Y45616D01*
X51872Y45763D01*
D02*
G37*
G36*
X43700Y45386D02*
X42978Y45243D01*
X42366Y44834D01*
X41957Y44222D01*
X41814Y43500D01*
X41957Y42778D01*
X42366Y42166D01*
X42978Y41757D01*
X43700Y41614D01*
X44422Y41757D01*
X45034Y42166D01*
X45443Y42778D01*
X45586Y43500D01*
X45443Y44222D01*
X45034Y44834D01*
X44422Y45243D01*
X43700Y45386D01*
D02*
G37*
G36*
X69949Y45385D02*
X69208Y45238D01*
X68580Y44818D01*
X68160Y44190D01*
X68012Y43449D01*
X68160Y42708D01*
X68580Y42080D01*
X69208Y41660D01*
X69949Y41512D01*
X70690Y41660D01*
X71318Y42080D01*
X71738Y42708D01*
X71885Y43449D01*
X71738Y44190D01*
X71318Y44818D01*
X70690Y45238D01*
X69949Y45385D01*
D02*
G37*
G36*
X19224Y49062D02*
X18246Y48933D01*
X17333Y48555D01*
X16550Y47954D01*
X15949Y47170D01*
X15571Y46258D01*
X15442Y45279D01*
X15571Y44301D01*
X15949Y43389D01*
X16550Y42605D01*
X17333Y42004D01*
X18246Y41626D01*
X19224Y41498D01*
X20203Y41626D01*
X21115Y42004D01*
X21899Y42605D01*
X22500Y43389D01*
X22877Y44301D01*
X23006Y45279D01*
X22877Y46258D01*
X22500Y47170D01*
X21899Y47954D01*
X21115Y48555D01*
X20203Y48933D01*
X19224Y49062D01*
D02*
G37*
G36*
X92200Y44786D02*
X91478Y44643D01*
X90866Y44234D01*
X90457Y43622D01*
X90314Y42900D01*
X90457Y42178D01*
X90866Y41566D01*
X91478Y41157D01*
X92200Y41014D01*
X92922Y41157D01*
X93534Y41566D01*
X93943Y42178D01*
X94086Y42900D01*
X93943Y43622D01*
X93534Y44234D01*
X92922Y44643D01*
X92200Y44786D01*
D02*
G37*
G36*
X31900Y44486D02*
X31178Y44343D01*
X30566Y43934D01*
X30157Y43322D01*
X30014Y42600D01*
X30157Y41878D01*
X30566Y41266D01*
X31178Y40857D01*
X31900Y40714D01*
X32622Y40857D01*
X33234Y41266D01*
X33643Y41878D01*
X33786Y42600D01*
X33643Y43322D01*
X33234Y43934D01*
X32622Y44343D01*
X31900Y44486D01*
D02*
G37*
G36*
X10957Y43741D02*
X10132Y43633D01*
X9364Y43315D01*
X8704Y42808D01*
X8197Y42148D01*
X7879Y41380D01*
X7770Y40555D01*
X7879Y39730D01*
X8197Y38962D01*
X8704Y38302D01*
X9364Y37796D01*
X10132Y37477D01*
X10957Y37369D01*
X11781Y37477D01*
X12550Y37796D01*
X13210Y38302D01*
X13716Y38962D01*
X14034Y39730D01*
X14143Y40555D01*
X14034Y41380D01*
X13716Y42148D01*
X13210Y42808D01*
X12550Y43315D01*
X11781Y43633D01*
X10957Y43741D01*
D02*
G37*
G36*
X38900Y40686D02*
X38178Y40543D01*
X37566Y40134D01*
X37157Y39522D01*
X37014Y38800D01*
X37157Y38078D01*
X37566Y37466D01*
X38178Y37057D01*
X38900Y36914D01*
X39622Y37057D01*
X40234Y37466D01*
X40643Y38078D01*
X40786Y38800D01*
X40643Y39522D01*
X40234Y40134D01*
X39622Y40543D01*
X38900Y40686D01*
D02*
G37*
G36*
X28600Y36986D02*
X27878Y36843D01*
X27266Y36434D01*
X26857Y35822D01*
X26714Y35100D01*
X26857Y34378D01*
X27266Y33766D01*
X27878Y33357D01*
X28600Y33214D01*
X29322Y33357D01*
X29934Y33766D01*
X30343Y34378D01*
X30486Y35100D01*
X30343Y35822D01*
X29934Y36434D01*
X29322Y36843D01*
X28600Y36986D01*
D02*
G37*
G36*
X61000Y36436D02*
X60259Y36289D01*
X59631Y35869D01*
X59211Y35241D01*
X59064Y34500D01*
X59211Y33759D01*
X59631Y33131D01*
X60259Y32711D01*
X61000Y32564D01*
X61741Y32711D01*
X62369Y33131D01*
X62789Y33759D01*
X62936Y34500D01*
X62789Y35241D01*
X62369Y35869D01*
X61741Y36289D01*
X61000Y36436D01*
D02*
G37*
G36*
X43200Y32386D02*
X42478Y32243D01*
X41866Y31834D01*
X41693Y31575D01*
X41454Y31223D01*
X41053Y31448D01*
X40822Y31602D01*
X40100Y31746D01*
X39378Y31602D01*
X38766Y31193D01*
X38357Y30581D01*
X38214Y29859D01*
X38357Y29138D01*
X38766Y28526D01*
X39378Y28117D01*
X40100Y27973D01*
X40822Y28117D01*
X41434Y28526D01*
X41607Y28784D01*
X41656Y28857D01*
X41902Y28839D01*
X42156Y28319D01*
X41957Y28022D01*
X41814Y27300D01*
X41957Y26578D01*
X42366Y25966D01*
X42978Y25557D01*
X43700Y25414D01*
X44422Y25557D01*
X45034Y25966D01*
X45443Y26578D01*
X45586Y27300D01*
X45443Y28022D01*
X45034Y28634D01*
X44826Y28772D01*
X44534Y29166D01*
X44943Y29778D01*
X45086Y30500D01*
X44943Y31222D01*
X44534Y31834D01*
X43922Y32243D01*
X43200Y32386D01*
D02*
G37*
G36*
X32109Y33555D02*
X31387Y33411D01*
X30775Y33002D01*
X30366Y32390D01*
X30223Y31668D01*
X30366Y30947D01*
X30775Y30335D01*
X31387Y29926D01*
X32109Y29782D01*
X32831Y29926D01*
X33443Y30335D01*
X33852Y30947D01*
X33995Y31668D01*
X33852Y32390D01*
X33443Y33002D01*
X32831Y33411D01*
X32109Y33555D01*
D02*
G37*
G36*
X87200Y32686D02*
X86478Y32543D01*
X85866Y32134D01*
X85457Y31522D01*
X85314Y30800D01*
X85457Y30078D01*
X85866Y29466D01*
X86478Y29057D01*
X87200Y28914D01*
X87922Y29057D01*
X88534Y29466D01*
X88943Y30078D01*
X89086Y30800D01*
X88943Y31522D01*
X88534Y32134D01*
X87922Y32543D01*
X87200Y32686D01*
D02*
G37*
G36*
X19224Y39219D02*
X18246Y39090D01*
X17333Y38712D01*
X16550Y38111D01*
X15949Y37328D01*
X15571Y36416D01*
X15442Y35437D01*
X15571Y34458D01*
X15949Y33546D01*
X16550Y32763D01*
X17333Y32162D01*
X18246Y31784D01*
X18487Y31752D01*
Y31248D01*
X18246Y31216D01*
X17333Y30838D01*
X16550Y30237D01*
X15949Y29454D01*
X15571Y28542D01*
X15442Y27563D01*
X15571Y26584D01*
X15949Y25672D01*
X16550Y24889D01*
X17333Y24288D01*
X18246Y23910D01*
X19224Y23781D01*
X20203Y23910D01*
X21115Y24288D01*
X21899Y24889D01*
X22500Y25672D01*
X22877Y26584D01*
X23006Y27563D01*
X22877Y28542D01*
X22500Y29454D01*
X21899Y30237D01*
X21115Y30838D01*
X20203Y31216D01*
X19962Y31248D01*
Y31752D01*
X20203Y31784D01*
X21115Y32162D01*
X21899Y32763D01*
X22500Y33546D01*
X22877Y34458D01*
X23006Y35437D01*
X22877Y36416D01*
X22500Y37328D01*
X21899Y38111D01*
X21115Y38712D01*
X20203Y39090D01*
X19224Y39219D01*
D02*
G37*
G36*
X70166Y27228D02*
X69425Y27081D01*
X68797Y26661D01*
X68377Y26033D01*
X68230Y25292D01*
X68377Y24551D01*
X68797Y23922D01*
X69425Y23503D01*
X70166Y23355D01*
X70907Y23503D01*
X71536Y23922D01*
X71956Y24551D01*
X72103Y25292D01*
X71956Y26033D01*
X71536Y26661D01*
X70907Y27081D01*
X70166Y27228D01*
D02*
G37*
G36*
X51992Y27188D02*
X51251Y27041D01*
X50623Y26621D01*
X50203Y25993D01*
X50056Y25252D01*
X50203Y24510D01*
X50623Y23882D01*
X51251Y23462D01*
X51992Y23315D01*
X52733Y23462D01*
X53361Y23882D01*
X53781Y24510D01*
X53929Y25252D01*
X53781Y25993D01*
X53361Y26621D01*
X52733Y27041D01*
X51992Y27188D01*
D02*
G37*
G36*
X96000Y25486D02*
X95278Y25343D01*
X94666Y24934D01*
X94257Y24322D01*
X94114Y23600D01*
X94257Y22878D01*
X94666Y22266D01*
X95278Y21857D01*
X96000Y21714D01*
X96722Y21857D01*
X97334Y22266D01*
X97743Y22878D01*
X97886Y23600D01*
X97743Y24322D01*
X97334Y24934D01*
X96722Y25343D01*
X96000Y25486D01*
D02*
G37*
G36*
X10957Y25631D02*
X10132Y25523D01*
X9364Y25204D01*
X8704Y24698D01*
X8197Y24038D01*
X7879Y23270D01*
X7770Y22445D01*
X7879Y21620D01*
X8197Y20852D01*
X8704Y20192D01*
X9364Y19685D01*
X10132Y19367D01*
X10957Y19259D01*
X11781Y19367D01*
X12550Y19685D01*
X13210Y20192D01*
X13716Y20852D01*
X14034Y21620D01*
X14143Y22445D01*
X14034Y23270D01*
X13716Y24038D01*
X13210Y24698D01*
X12550Y25204D01*
X11781Y25523D01*
X10957Y25631D01*
D02*
G37*
G36*
X47900Y22486D02*
X47178Y22343D01*
X46566Y21934D01*
X46157Y21322D01*
X46014Y20600D01*
X46157Y19878D01*
X46566Y19266D01*
X47178Y18857D01*
X47900Y18714D01*
X48622Y18857D01*
X49234Y19266D01*
X49643Y19878D01*
X49786Y20600D01*
X49643Y21322D01*
X49234Y21934D01*
X48622Y22343D01*
X47900Y22486D01*
D02*
G37*
G36*
X80000Y20186D02*
X79278Y20043D01*
X78666Y19634D01*
X78257Y19022D01*
X78114Y18300D01*
X78257Y17578D01*
X78666Y16966D01*
X79278Y16557D01*
X80000Y16414D01*
X80722Y16557D01*
X81334Y16966D01*
X81743Y17578D01*
X81886Y18300D01*
X81743Y19022D01*
X81334Y19634D01*
X80722Y20043D01*
X80000Y20186D01*
D02*
G37*
G36*
X19224Y21502D02*
X18246Y21374D01*
X17333Y20996D01*
X16550Y20395D01*
X15949Y19611D01*
X15571Y18699D01*
X15442Y17720D01*
X15571Y16742D01*
X15949Y15830D01*
X16550Y15046D01*
X17333Y14445D01*
X18246Y14067D01*
X19224Y13938D01*
X20203Y14067D01*
X21115Y14445D01*
X21899Y15046D01*
X22500Y15830D01*
X22877Y16742D01*
X23006Y17720D01*
X22877Y18699D01*
X22500Y19611D01*
X21899Y20395D01*
X21115Y20996D01*
X20203Y21374D01*
X19224Y21502D01*
D02*
G37*
G36*
X93900Y14086D02*
X93178Y13943D01*
X92566Y13534D01*
X92157Y12922D01*
X92014Y12200D01*
X92157Y11478D01*
X92566Y10866D01*
X93178Y10457D01*
X93900Y10314D01*
X94622Y10457D01*
X95234Y10866D01*
X95643Y11478D01*
X95786Y12200D01*
X95643Y12922D01*
X95234Y13534D01*
X94622Y13943D01*
X93900Y14086D01*
D02*
G37*
G36*
X69700Y12686D02*
X68978Y12543D01*
X68366Y12134D01*
X67957Y11522D01*
X67814Y10800D01*
X67957Y10078D01*
X68366Y9466D01*
X68978Y9057D01*
X69700Y8914D01*
X70422Y9057D01*
X71034Y9466D01*
X71443Y10078D01*
X71586Y10800D01*
X71443Y11522D01*
X71034Y12134D01*
X70422Y12543D01*
X69700Y12686D01*
D02*
G37*
G36*
X38900Y12386D02*
X38178Y12243D01*
X37566Y11834D01*
X37157Y11222D01*
X37014Y10500D01*
X37157Y9778D01*
X37566Y9166D01*
X38178Y8757D01*
X38900Y8614D01*
X39622Y8757D01*
X40234Y9166D01*
X40643Y9778D01*
X40786Y10500D01*
X40643Y11222D01*
X40234Y11834D01*
X39622Y12243D01*
X38900Y12386D01*
D02*
G37*
G36*
X111400Y9686D02*
X110678Y9543D01*
X110066Y9134D01*
X109657Y8522D01*
X109514Y7800D01*
X109657Y7078D01*
X110066Y6466D01*
X110678Y6057D01*
X111400Y5914D01*
X112122Y6057D01*
X112734Y6466D01*
X113143Y7078D01*
X113286Y7800D01*
X113143Y8522D01*
X112734Y9134D01*
X112122Y9543D01*
X111400Y9686D01*
D02*
G37*
G36*
X14795Y12044D02*
X7118D01*
X6422Y11953D01*
X5773Y11684D01*
X5216Y11256D01*
X4789Y10699D01*
X4520Y10051D01*
X4428Y9354D01*
Y7583D01*
X4520Y6887D01*
X4789Y6238D01*
X5216Y5681D01*
X5773Y5253D01*
X6422Y4984D01*
X7118Y4893D01*
X14795D01*
X15492Y4984D01*
X16140Y5253D01*
X16697Y5681D01*
X17125Y6238D01*
X17393Y6887D01*
X17485Y7583D01*
Y9354D01*
X17393Y10051D01*
X17125Y10699D01*
X16697Y11256D01*
X16140Y11684D01*
X15492Y11953D01*
X14795Y12044D01*
D02*
G37*
%LPD*%
D22*
X61300Y6982D02*
X63182Y5100D01*
X61300Y6982D02*
Y8300D01*
X60350Y9250D02*
X61300Y8300D01*
X56108Y9250D02*
X60350D01*
X55400Y8542D02*
X56108Y9250D01*
X55400Y7100D02*
Y8542D01*
X53800Y5500D02*
X55400Y7100D01*
X63182Y5100D02*
X103600D01*
X112200Y32300D02*
Y36600D01*
Y32300D02*
X114700Y29800D01*
Y16100D02*
Y29800D01*
X114600Y16100D02*
X114700D01*
X103600Y5100D02*
X114600Y16100D01*
X40000Y5500D02*
X53800D01*
D33*
X40000D02*
D03*
X47500Y17000D02*
D03*
X112200Y36600D02*
D03*
X85900Y27200D02*
D03*
X108600Y47500D02*
D03*
X46800Y11500D02*
D03*
X84200Y55200D02*
D03*
X98700Y8000D02*
D03*
X80200Y14200D02*
D03*
X43900Y20500D02*
D03*
X34900Y54100D02*
D03*
M02*
