M48
;Layer_Color=9474304
;FILE_FORMAT=2:5
INCH,LZ
;TYPE=PLATED
T1F00S00C0.01000
T2F00S00C0.01299
T3F00S00C0.03937
;TYPE=NON_PLATED
T5F00S00C0.05118
%
T01
X00237Y00063
X00238Y00095
X00239Y00128
X00389Y00105
X004Y00055
X00468Y00115
X00475Y0017
X00479Y00206
X00439Y00205
X00437Y00273
X00432Y00305
X00401Y0029859
X0032109Y0031668
X00286Y00351
X00319Y00426
X00306Y00512
X00349Y00541
X00435Y00485
X0047Y00478
X00437Y00435
X00389Y00388
X00564Y00536
X00593Y00521
X00624Y00525
X00585Y0056
X00761Y00507
X00842Y00552
X00883Y00564
X00867Y00441
X00922Y00429
X00872Y00308
X00859Y00272
X0096Y00236
X00939Y00122
X00987Y0008
X00802Y00142
X008Y00183
X00697Y00108
X00585Y0007
X01086Y00475
X01122Y00366
X01118Y00259
X01114Y00078
T02
X0051992Y0025252
X0070166Y0025292
X0061Y00345
X0069949Y0043449
X0051872Y0043827
T03
X0019224Y001772
Y0027563
Y0035437
Y0045279
T05
X0010957Y0022445
Y0040555
M30
